<svg xmlns="http://www.w3.org/2000/svg" viewBox="0 0 134.75 111.12"><defs><style>.cls-1{fill:#202020;}</style></defs><g id="Layer_2" data-name="Layer 2"><g id="Layer_2-2" data-name="Layer 2"><path class="cls-1" d="M4.38,21.92c-.12.2.08.28.56-.08l.16-.51Z"/><path class="cls-1" d="M8.06,20.16c.49-.52,1-1.22.46-1.22-.4.66-.61.65-1,1.38-.48.37-.93.5-.91.35-.13.19-.81.46-1,.81A5.6,5.6,0,0,0,8,20C8.19,19.89,8.06,20.09,8.06,20.16Z"/><path class="cls-1" d="M62.61,1.65h-.37A2.27,2.27,0,0,0,62.61,1.65Z"/><path class="cls-1" d="M98.23,4.5c-.26-.06-.38-.06-.4,0C98.08,4.51,98.28,4.54,98.23,4.5Z"/><path class="cls-1" d="M103.92,6.73l-.33-.15A.85.85,0,0,0,103.92,6.73Z"/><path class="cls-1" d="M62.61,1.65h1C63.64,1.55,63.08,1.63,62.61,1.65Z"/><path class="cls-1" d="M14.52,15.26a3.23,3.23,0,0,0-.42.34l.41-.27A.2.2,0,0,1,14.52,15.26Z"/><path class="cls-1" d="M47,4.39l-.29.07a1.19,1.19,0,0,0-.2.19Z"/><path class="cls-1" d="M35.35,7.74c.27-.07.27-.37.33-.52a1.19,1.19,0,0,1-.51.37S35.24,7.69,35.35,7.74Z"/><path class="cls-1" d="M17.47,14.94l-.28.2Z"/><path class="cls-1" d="M55.57,2.83a.23.23,0,0,0,.12.09S55.64,2.86,55.57,2.83Z"/><path class="cls-1" d="M20.93,19.94s0,0,0,0S21,19.9,20.93,19.94Z"/><path class="cls-1" d="M35.11,17.53l-.2,0a.32.32,0,0,0,0,.16Z"/><path class="cls-1" d="M113.71,11.83l0,0C113.41,11.68,113.55,11.76,113.71,11.83Z"/><path class="cls-1" d="M105.47,97.59c.53-.23.2.11-.08.41s-.51.54.3.17C105.5,98.17,106.73,96.88,105.47,97.59Z"/><path class="cls-1" d="M14.81,15.14l.44-.24Z"/><path class="cls-1" d="M105.69,98.17h0l.16-.08Z"/><path class="cls-1" d="M130,30.34a.83.83,0,0,0,0-.29S130,30.14,130,30.34Z"/><path class="cls-1" d="M119.33,15.1l.34.32A4.55,4.55,0,0,0,119.33,15.1Z"/><path class="cls-1" d="M132.45,39.79a2.39,2.39,0,0,0,0,.69.3.3,0,0,0,0-.1A1.35,1.35,0,0,1,132.45,39.79Z"/><path class="cls-1" d="M132.19,50.08s.05-.12.08-.18l0-.33Z"/><path class="cls-1" d="M1.35,45.15a1.6,1.6,0,0,1,.35-.42C1.47,44.85,1.77,43.28,1.35,45.15Z"/><path class="cls-1" d="M14.6,15.4a.44.44,0,0,1,.21-.26l-.3.19C14.51,15.38,14.52,15.41,14.6,15.4Z"/><path class="cls-1" d="M134.69,40.05c0,.57.05,1.14.05,1.71A12.78,12.78,0,0,0,134.69,40.05Z"/><path class="cls-1" d="M38,105.2l-.37-.1A1,1,0,0,0,38,105.2Z"/><path class="cls-1" d="M134.72,46.83a5.79,5.79,0,0,0-.27,1,1,1,0,0,0,.06.2C134.58,47.6,134.66,47.22,134.72,46.83Z"/><path class="cls-1" d="M1.71,44.73h0Z"/><path class="cls-1" d="M5.53,34.09c-.86,1.41-.09.85-.08,1.25-.88,1.73-.67.66-1.16,1.15-.46,1.15-.6,2.12-.93,3-.08,0-.17.19-.16,0-.09.66-.51,1.52-.77,2.47a9.74,9.74,0,0,0-.59,2.67.57.57,0,0,1-.13.17c.23-.19.42-.18.54-.09-.16.7-.08,1.34-.38,1.55a1.14,1.14,0,0,0,0-.7l-.07.76c-.5.59.12-1-.13-1.09-.28,1.46-.25,3.21-.52,4.31-.38.19.31-2.64-.23-1.19.14-.57.25-1.15.43-1.71-.82,1.21.28-1-.56.06a40.65,40.65,0,0,0-.61,4.91c.14.54.3-.15.44.39a6.14,6.14,0,0,1-.36,2.81,3,3,0,0,0-.12,2.19,3.9,3.9,0,0,1,.61,2.55l-.44-.55c.22,2.24.62,1.22.75,3.56-.22-.38-.41-1.72-.4-1.37-.05,1.54.39,1,.58,2.17l-.3.31a49.5,49.5,0,0,0,2.35,7.28c-.14-.1-.39-.5-.28.12,1.25,3.09,2.68,6.59,4.17,9.47l.91.89c.15.24.17.52,0,.29.57,1.12.19-.05.6.4s.4.87,0,.55c.76.83,1.73,2.07,2.79,3.25s2.1,2.38,2.75,3.36l-.37-.27c1.17,1.4,1.84,1.06,2.84,2.42l-.28-.18C19.16,94,22.76,96.41,25,98.42c.7,0,3.18,2.24,3.72,1.82A22.69,22.69,0,0,0,32.61,103c.75.39,1.3.21,2.26.6l-.11.29c.47.1,1,.18,1.43.26l.54.64.93.31c-.35-.17-.71-.45-.62-.51a10.87,10.87,0,0,1,3.36,1.71c1.17.29,2.32.64,3.5.88a3.27,3.27,0,0,1-1.18-.11c1.92.28.23.42,2,.66-.2-.14.18-.14.23-.19a17.52,17.52,0,0,0,4.18,1.23l-.33.14a38,38,0,0,0,4.12.83c1.44.2,2.91.49,4.4.62-1-.22-.75-.55.12-.49l.31.36c.58-.13-.9-.22.29-.34,1.1.17.7.46.05.49l1.36,0c.07.11-.25.12-.35.24a4.75,4.75,0,0,1,1.48.21,3.55,3.55,0,0,0,1.68,0l.07.1c1.5.07,2.59.13,3.62.11s2-.08,3.19-.1c0-.29,1-.2,1.72-.48l2.83,0,1.52,0c.52,0,1.05-.11,1.58-.19,1.49-.34.41-.29,1.06-.55.15.24,2.28-.07,1.2.26a28.19,28.19,0,0,0,3-.6c.89-.23,1.88-.4,3.43-.92-.36,0-.76,0-.58-.1.56-.19,1.33-.24,1.28-.1l-.15.07a20.54,20.54,0,0,1,2.81-.8l3-.75a16.41,16.41,0,0,0,5.09-1.92l-.14.09,1.35-.72,1.3-.81c1.27-.59-.66.56.33.23,2.77-1.8,4.6-2.45,6.77-4.1A14.83,14.83,0,0,0,110.63,97c.73-.65,1.48-1.33,2.19-1.93.36-.3.71-.59,1.05-.84s.63-.53.92-.74h-.24c.4-.65.7-.56,1.11-.92-.15,0-.67.45-.42.06l1.62-1.7c.55-.57,1-1.21,1.55-1.81L120,87.25c.53-.6,1-1.26,1.5-1.9a58.35,58.35,0,0,0,5.19-8.17c1-2.09-.24-1.56,1.3-4.07l0,.89c1.5-4.45,3.39-9,4.2-13.47a1.42,1.42,0,0,1,0,.74,7.93,7.93,0,0,0,.67-3.52c.19-.69.22-.13.41-.53.34-.93.19-2.45.5-2.92,0-.08,0,.29,0,.47,0-.65.52-2.91.14-2.36.4-1.68.31-3.28.58-4.63-.22-.92.32-3-.13-3.25.23.06.33-.69.34-1.61a12.59,12.59,0,0,0-.27-2.52c.16.36.06-1,.29-.54-.08-1.26-.36-2.4-.55-2.15.24-2.4-1.22-4.48-.95-5.9-.3-.89-.68-1.74-1-2.57s-.81-1.61-1.2-2.4c-.19-.39-.39-.78-.59-1.16l-.69-1.09c-.47-.71-.88-1.45-1.38-2.12.5-.18,1.91,3.17,2.27,2.81a67.71,67.71,0,0,0-5-6.49c-.49-.65.45.22.69.38-.56-.57-1.08-1.14-1.6-1.72s-1.09-1.07-1.61-1.59a20.54,20.54,0,0,0-3.36-2.75s.3.12.54.28c-.44-.34-1-.87-1-.67l.45.3c.25.4-.27.16-.88-.14a9,9,0,0,0-1.42-.58c1.1,0-2.17-1.7-.54-1.47-.32-.18-.75-.35-.76-.18-.44-.31-.55-.47,0-.32-1.76-.93-1.27-.38-2.8-1.3.06-.08.38.07.6.06a14.28,14.28,0,0,1-3.07-1.3c.1,0,0-.16.38,0a20,20,0,0,0-3.29-1.28c-1.07-.39-2.18-.73-3.46-1.31.93-.11-.85-.48-.87-.88-.49-.14-1-.25-1.49-.38l.53.36C101.29,4,100.11,3.8,99,3.4c.33,0,.66.06,1,.12-.8-.21-1.62-.39-2.43-.59l1.33.5c-1.35-.16,0,.5-1.66-.06.35.06-1.27-.37-1.9-.71h0a7.55,7.55,0,0,1-2.29-.35c-.22-.17.29-.36.14-.47-.69.15-3.09-.47-3.94-.29.28,0,.32-.23.24-.28s-.38.1-.58.17c-.59-.17-.68-.22-.56-.36-1.83-.29.52.55-1.63.06a2.55,2.55,0,0,1,.46,0A20.94,20.94,0,0,0,84,.77,30.54,30.54,0,0,1,81,.52C80.39.09,82.73.58,82.07.2a44.58,44.58,0,0,0-4.48,0c-1.5,0-3,0-4.4,0l.53,0c-.4.54-2.11-.25-3.53,0,.35,0,.45-.29.36-.23a18.33,18.33,0,0,0-3.07.17c-1.11.13-2.34.25-3.79.46L64,.48c-1.15,0-3,.22-4.23.28-.35.17-1.05.22-.6.37a18.82,18.82,0,0,0-5.43.61,20.36,20.36,0,0,1-5.07.88c.39-.07.92-.29.6-.23-.93.2-1.85.48-2.77.74.27.17.39.05,1,.08a6.44,6.44,0,0,1-1.77.67c1.21-.44-.1-.36-.67-.35.1,0-.06.16,0,.22-1.55,0-.13.5-2.18.73L43,4.33a18.79,18.79,0,0,1-2.15.81c-.4-.17.75-.35.74-.57-1.11.33-2.05,1.11-3.14,1.14.45-.21,1.13-.4,1.59-.61a7.29,7.29,0,0,0-2.13.31H38l-1.91.48.5-.08c-1.15,1.14-2.78,1-4.45,2.15,1.62-1.09.21-.35.24-.69-.49.1-1.24.29-1.06.13-.78.56-1.52.38-2.61,1.18-.09-.07-.92.35-.82,0-1.09.53.32.05.28.21a15.76,15.76,0,0,1-2.95,1.25,12.66,12.66,0,0,0-3.45,1.65c-2,1.2-2.22,1.63-4,2.78-.7.21.35-.6.35-.6a12.82,12.82,0,0,0-2.73,1.5c.15-.18-.09-.13-.43-.07-.76.45-.34.59-1.42,1a2.89,2.89,0,0,1,.57-.76c-.88.55-1.63,1.28-2.51,1.91-.33,0,.42-.56.69-.85a13.85,13.85,0,0,0-2.76,2.18l.71-.32c-.36.24-.31-.08-.06-.29.76-.72,1.31-.7,1.41-.64L11,18c1,.09,2.53-1.72,3.91-2.39l-.35.67,1.21-1.06c.34-.07.65,0,0,.44,1.06-.34.78-.59,1.71-.85.11,0,.08,0,0,.09l.88-.63c-.14.18.29.18-.31.44,1.8-.68,2.62-1.66,3.4-1.71l-.13.1c2.32-1.3.09-.39,1.74-1.6l1.54.15.11-.39c.26-.1.77-.29.72-.14.85-.6-.21-.05.25-.47a12.1,12.1,0,0,0,2.2-.85c.72-.32,1.35-.52,1.57-.35.36-.38-1.24.29,0-.37.56.35,1.49-.67,2.7-.88-.25.39-1.37.67-.16.46C32.51,8,34.23,8,35.17,7.59c-.07-.35,2-.87,3.64-1.47-.07.15,3.14-.69,4.7-1l0,.07c.2-.43,1.81-.74,3-1.09,0,.23-.19.36-.79.61l1.08-.26A3.82,3.82,0,0,1,48,3.93l-.22.34a28.69,28.69,0,0,1,4.79-1.09c.06-.28-1.63-.42.34-1,.1.12.21.34-.3.5a3.72,3.72,0,0,1,.94-.24l-.75.38c.87-.06.41-.28,1.11-.38,0,.2.53.07.46.24a3.28,3.28,0,0,0-.87.13,7.52,7.52,0,0,1,2.08,0c-.09-.1,0-.26.52-.37,1.47-.22.54.17,1.41.14.34-.18,1.3-.18,1.29-.47a1,1,0,0,1,.7.14c.75-.21,3.57-.39,2.68-.62H62l.13,0h0c2.49-.59,5.25-.19,7.74-.45v.1c1.5-.12,3.33-.09,4.4-.3.45,0,1.05.18.85.29a12.14,12.14,0,0,1,2.93.1c-1.16.13.39.17-1.19.08a11.1,11.1,0,0,0,3.42.11c-.56.21,1.09.41,1.8.4l-1-.27c.8,0,1.49.12,2.19.2l-.41.3a22.72,22.72,0,0,0,4.14.32,7.82,7.82,0,0,1,3.54.63c.83-.09-1.59-.44-.84-.59a27.7,27.7,0,0,1,3.13,1.1c1.81.61,1.84-.11,3.75.49-.22-.18-.38-.55,1.1-.26s1.53.92.65.79c-.32-.08-.47-.16-.44-.2-.45-.07-1-.18-.53.09l.2-.07c.64.29,2.48.8,2,.87,1,.21.49,0-.24-.34,1.64.72,2.67.8,4.34,1.57-.25-.17-.45-.39-.18-.29,2.46,1.1,1.19.2,2.91.82.88.59-.51.25,1.23.86,1,.56.09.38-.35.29a8.33,8.33,0,0,1,2.08.94c.58.38,1.06.74,1.47,1l-.81-.31a11.29,11.29,0,0,1,1.25.58l-.34-.44c.44.27.83.47.77.56.54.11-.17-.55.86-.23.53.46,1.87,1,1.9,1.36-1.79-1.2,0,.39-1.54-.5a7.22,7.22,0,0,1,1.1.67c0,.07-.1,0-.23,0,1.61,1.29,1,.16,2.76,1.38-.32,0,.21.56.52.72-.7-.49-.17-.47.56-.13a17.9,17.9,0,0,0,1.78,1.3l-.59-.57a6.26,6.26,0,0,1,1.62,1.05c0,.16-.73-.47-.51-.21,1.07.41,1.56,1.85,2.78,2.7.4.56-.19.28.17.76,1.23,1.09,1,1.47,2.22,2.68-.1-.55-.2-.59.7.26a25.54,25.54,0,0,0-1.93-2.1l1.47,1.16c-.57-.65-1.31-1.28-1.62-1.69.72.53.62.5.49.06a4.58,4.58,0,0,0,1.13,1.39,5.55,5.55,0,0,1,1.17,1.54l-.5.31a8.29,8.29,0,0,0,.8,1.22c.28.38.52.78.81,1.18a10.65,10.65,0,0,1,1.67,2.9l-.25-.82c.36.22.7,1.48,1.14,2.23-.22,0,0,.51,0,.9.11-.09.64,1.81,1,1.94l.08,1.21c.4,2.09,1.12,2.26,1.37,4.34-.31-.59-.29.36-.67-1,.13.67.15,1.3.29,1.29a4.72,4.72,0,0,0,.21,1.17,4,4,0,0,1,.12,1.36,1.86,1.86,0,0,1,.35,1.15c0,.08-.1,0-.1,0s.17,1.22.37.53c-.51,2.15-.07,6-.85,7.84-.1,1.51-.34,3.34-.57,4.7,0-.1-.1,0,0-.27-.55,1.83.34,1.26-.33,3.35-.56,1,.1-1.16-.18-.51-.69.15-.5,2.57-1.26,3.89l.06-.35c-.51,1-.47,2.7-1.08,4.43,0,0,0-.1-.09,0a23.83,23.83,0,0,1-1.26,5.25c0-.6.16-.79-.2-.57-.25.75.48-.07,0,1.43-.32.42-.86,1.43-1.18,1.46.19-.46.37-.92.55-1.38-.61.57-.72,1.77-1.09,2.47l-.1-.16c-.9,2.08-.54,2.28-1.69,4.44l.22-.17c-.27,1.37-.72.88-1.11,2.19l-.55.15a35.09,35.09,0,0,1-2.12,4.17c.28-.9,1.17-2.52,1.59-3.59a24.38,24.38,0,0,0-1.65,3,4.85,4.85,0,0,1,.58-1,11.73,11.73,0,0,1-2.09,3.69c-.2-.36-1,.48-1.82,1.48-.44.49-.88,1.06-1.34,1.48a4.69,4.69,0,0,1-1.22.86,18.16,18.16,0,0,1-3.3,3.19L109.08,95c-.65.51-1.38,1-2.08,1.49,1.37-.25-.83.62-.31,1a4.6,4.6,0,0,1-1,.71c-.76.37-1.56.68-2.34,1-.6.16.6-.52.47-.6-1.57.9-.79.17-1.89.65.31,0-.35.63-1.32,1a12.74,12.74,0,0,0,1.4-.46,4.57,4.57,0,0,1-2.12,1,5.58,5.58,0,0,0-2.16,1l.64-.54c-.28.18-.69.4-1.16.65s-1,.46-1.57.72A11.89,11.89,0,0,0,93,104.16c-.24,0-.59,0-.06-.28-1.49.45-3.09,1.17-4.64,1.75a24,24,0,0,1-4.3,1.15l.2-.19a5,5,0,0,1-1.69.47c0-.07.2-.19-.06-.15a10.15,10.15,0,0,1-2.25.62l.62-.29A32.26,32.26,0,0,0,77,108a19.26,19.26,0,0,1-3.39.73c0-.45-2.44-.39-3.64-.42l0-.06c-1.78,0-3.28.11-4.76.2s-2.94.13-4.6.1a28.55,28.55,0,0,0-4.58-.85,47.34,47.34,0,0,1-5.44-1.19c.47.19-.16.32-.74.23-.74-.24-2.15-.22-1.93-.58l.26.08c-.46-.53-2-.82-3.2-1.21l-.35.45a32.89,32.89,0,0,0-5.3-2.09c-.93-.3-1.79-.64-2.52-.95a5.15,5.15,0,0,1-1.63-1c-.75-.22-1.64-.61-2.38-.86l.16-.24c-1.88-1.06-2.81-1.59-5.12-2.93l.57.12c-1.25-.83-2.07-.3-3.22-1.1l-.1-.59c-2.19-1.48-4-3.43-6.18-4.88.07,0,.21-.06.53.22-.43-.44-1.28-1.28-2-2s-1.28-1.19-1.33-.83c.23-.26-1.82-2-2.84-3h.35a7.51,7.51,0,0,1-2.22-2c-.2-.35,0-.41.22.06-.64-1.17-.82-.69-1.61-2.1l.49.4a4.59,4.59,0,0,0-1.32-1.54,5.11,5.11,0,0,1-1.13-2.57,2.83,2.83,0,0,1-1.07-1.41c0-.14.22.1.31.22A15.8,15.8,0,0,0,6.16,74a8.22,8.22,0,0,1-.85-2,.32.32,0,0,0,.05-.31c.69,1.67,1.14,2.77,1.19,2.9.22-.11-.32-1.45.47-.54a15.14,15.14,0,0,1-2.13-4.06.68.68,0,0,1,0-.21l.07.13A3.5,3.5,0,0,0,4.65,69c-.11-.44-.14-.73-.26-1.15.17-.22-.39-1.62-.51-2.33-.26.13-.42-.81-.45.11,0-.12.06.13.18.6a3,3,0,0,0,.11.29l0,0c.14.46.32,1.06.52,1.74a4.29,4.29,0,0,1-.65-1.88c-.26-.32-.53-.68-.67-.89a14.84,14.84,0,0,0,.06-1.93,4.81,4.81,0,0,1,.14-1.36C2.51,60,2.41,57,1.85,55.63a1.24,1.24,0,0,1,.25-1,4.88,4.88,0,0,0,.11,1c-.15-1.26,0-3.73-.27-4.06.32-1.58.26.92.4-1.27l.09.31A46.2,46.2,0,0,0,3.3,45a17.06,17.06,0,0,1,.59-2.76,13.61,13.61,0,0,1,1.38-3c-.16.29-.25.43-.33.47a58,58,0,0,1,4.19-7.19,24.9,24.9,0,0,1,5.7-6,7.94,7.94,0,0,0,1.85-1.9l.44,0a15.64,15.64,0,0,1,1.1-1.2,7.38,7.38,0,0,1,1.35-.9c.48-.21,1-.39,1.46-.58a15.7,15.7,0,0,0,3.26-1.55l-.42,0c.94-.42,3-1.26,2.92-1a.85.85,0,0,1,.68-.31l.07.14c.79-.29,1.57-.64,2.38-.89,1.95-.22-.17.65,2.61.22,1-.14,2.95-.7,2.55-.77s-1.1,0-1.14-.17l1-.16c.15-.48,1-1-1.59-1.14a14.8,14.8,0,0,0-1.7.47L31,16.76c.49-.07,1-.2,1.46-.23a3.23,3.23,0,0,0-1.92.41,1.34,1.34,0,0,0-.77-.12,15.53,15.53,0,0,0-1.56.83c-.25-.12.65-.55-.49-.35-.72.41.85.2-.39.67-.86,0-.69-.22-1.55.28-.17-.06,0-.21.35-.39-.77.44-2.16.83-2.47,1.25-.89.13-2.63,1.27-2.74.88a11.16,11.16,0,0,1-1.85,1.46c.51-.57-.18-.27-.91.24s-1.59,1-1.6.69c-.63,1-3,2.54-4.19,4.07a1.1,1.1,0,0,1,.29-.39c-.83.69-1.13.82-1.67,1.27.2.39-.93,1.62-1.28,2.49-1.12.77.15-.91-.38-.83.28.16-1.21,2-.72,1.8-.82.63-.6.62-1.18.84.3.43-.47.82-.7,1.68-1,1.09-.59.07-1.3,1.52C4.94,35.41,5.53,34.09,5.53,34.09ZM3.38,70.85h0l-.27-.72Zm1.15,2.94L4,72.52c0-.13.18-.06.3.23C4.19,72.62,4.43,73.33,4.53,73.79ZM4.2,67c.18.45.17.62.13.7-.07-.21-.16-.46-.27-.8l0,0A.55.55,0,0,1,4.2,67Z"/><path class="cls-1" d="M3.61,66.24c0-.07,0-.11-.07-.19a2.71,2.71,0,0,0,0,.29l.13.14Z"/><path class="cls-1" d="M62.17,1.65h.07a.26.26,0,0,1-.14,0Z"/><polygon class="cls-1" points="34.74 103.95 34.77 103.89 34.49 103.83 34.74 103.95"/><path class="cls-1" d="M45.12,3.53a.49.49,0,0,0-.24,0A.9.9,0,0,0,45.12,3.53Z"/><path class="cls-1" d="M37.92,5.41l-1,.24C37.34,5.56,37.67,5.48,37.92,5.41Z"/><path class="cls-1" d="M32.45,7.11a.33.33,0,0,0-.06.15h0Z"/><path class="cls-1" d="M120.21,13.39l.19.13C120.84,13.81,120.55,13.6,120.21,13.39Z"/><path class="cls-1" d="M95.37,2.66l.88.06C95.79,2.6,95.42,2.51,95.37,2.66Z"/><path class="cls-1" d="M134.68,39.86h0v0Z"/><path class="cls-1" d="M97.47,3.06a5.15,5.15,0,0,0-1.22-.34A10,10,0,0,0,97.47,3.06Z"/><path class="cls-1" d="M10.11,17.86,9.87,18s0,0,0,.05Z"/><path class="cls-1" d="M9.87,18.05l-.25.19A.71.71,0,0,0,9.87,18.05Z"/><path class="cls-1" d="M9.11,18.64l.51-.4A1.54,1.54,0,0,0,9.11,18.64Z"/><path class="cls-1" d="M16.74,14.16l0-.13A.12.12,0,0,0,16.74,14.16Z"/><path class="cls-1" d="M18.76,13.05a10.37,10.37,0,0,0-2,.87l0,.11C17,13.72,18.36,13.42,18.76,13.05Z"/><path class="cls-1" d="M28,10.17l-1.79.69c.35,0,.81-.07,0,.3C28.54,10.49,25.66,11.14,28,10.17Z"/><path class="cls-1" d="M33.55,8.19c-.95.39.06.14,0,.22C34.16,8.11,34.31,8,33.55,8.19Z"/><path class="cls-1" d="M75.52,1.38l-.11.25C76.2,1.63,75.42,1.53,75.52,1.38Z"/><polygon class="cls-1" points="83.8 0.56 83.04 0.33 82.65 0.53 83.8 0.56"/><path class="cls-1" d="M88.39,2.92h-.34c.43,0,.87,0,1.31.1C89,3,88.71,2.94,88.39,2.92Z"/><path class="cls-1" d="M132.14,48.23l.33-.21C132.46,47.49,132.11,47.35,132.14,48.23Z"/><path class="cls-1" d="M123.76,77.71a3.42,3.42,0,0,0-.92,1.48A13.8,13.8,0,0,0,123.76,77.71Z"/><path class="cls-1" d="M43.36,104.6c.21,0,.41.07.62.09l-1.13-.29Z"/></g></g></svg>
