<svg xmlns="http://www.w3.org/2000/svg" viewBox="0 0 34.27 13.47"><defs><style>.cls-1{fill:#202020;}</style></defs><g id="Layer_2" data-name="Layer 2"><g id="Layer_2-2" data-name="Layer 2"><path class="cls-1" d="M31.75,8.17c0,.08-.05.28,0,.24l.07-.32Z"/><path class="cls-1" d="M31.94,8.81a2,2,0,0,0,.17-.73c-.09.31-.08.18-.18.55-.05,0-.06-.12,0-.24,0,.08-.05-.08-.1.12s.09.28.19.08A.72.72,0,0,1,31.94,8.81Z"/><path class="cls-1" d="M30.09,7.49v0S30.1,7.5,30.09,7.49Z"/><path class="cls-1" d="M27.76,6.51s0,0,0-.06S27.77,6.48,27.76,6.51Z"/><path class="cls-1" d="M27.46,6l0,0S27.48,6,27.46,6Z"/><path class="cls-1" d="M30.09,7.49l0-.12C30,7.47,30.07,7.46,30.09,7.49Z"/><path class="cls-1" d="M32.6,8.09a.28.28,0,0,0-.05.08l0,0Z"/><path class="cls-1" d="M31.22,7.61h0l.07-.12Z"/><path class="cls-1" d="M32,7.85a2.6,2.6,0,0,0-.16.35c.05-.1.08-.15.1-.16Z"/><path class="cls-1" d="M32.64,9.25l0,0Z"/><path class="cls-1" d="M30.67,7.35l0-.1A.29.29,0,0,0,30.67,7.35Z"/><path class="cls-1" d="M7.23,3.43v0A.1.1,0,0,0,7.23,3.43Z"/><polygon class="cls-1" points="6.5 1.9 6.51 1.89 6.54 1.73 6.5 1.9"/><path class="cls-1" d="M26.82,5.44h0S26.84,5.43,26.82,5.44Z"/><path class="cls-1" d="M19.79,3.62c0,.26-.21.27-.16.58C19.65,4.09,19.85,3.8,19.79,3.62Z"/><path class="cls-1" d="M32.62,8.13h0A0,0,0,0,0,32.62,8.13Z"/><path class="cls-1" d="M19.63,4.2h0v0Z"/><path class="cls-1" d="M25,5.06c0,.05,0,.09,0,.12A.29.29,0,0,0,25,5.06Z"/><path class="cls-1" d="M26.21,5.85l0,0A.06.06,0,0,0,26.21,5.85Z"/><path class="cls-1" d="M24.24,5.24s0-.06,0,0v0S24.24,5.19,24.24,5.24Z"/><path class="cls-1" d="M23.54,5v.06h0Z"/><path class="cls-1" d="M9.41,3.69a2.46,2.46,0,0,1,0-.26C9.4,3.63,9.28,3.68,9.41,3.69Z"/><path class="cls-1" d="M32.58,8.25c0-.07,0-.11,0-.12h0A.45.45,0,0,0,32.58,8.25Z"/><path class="cls-1" d="M23.58,7.36l-.1-.08A.2.2,0,0,0,23.58,7.36Z"/><path class="cls-1" d="M14.49,4.69l0,0S14.47,4.72,14.49,4.69Z"/><path class="cls-1" d="M23.14,7.23a.71.71,0,0,0,0-.21l0,.07Z"/><path class="cls-1" d="M9.43,3.43Z"/><path class="cls-1" d="M8.56,4c.11,0,.12-.35.18-.55s0,.28,0,.47c.1-.08.22-.4.28-.38a.5.5,0,0,1,0,.16c.14-.27.25,0,.42-.31v.09a4.63,4.63,0,0,1,.07-.5c.05,0,.14-.21.11,0,0,0,0,.08-.08.15L9.6,3c0,.35-.09.1-.13.35.12-.09.28-.35.34-.24-.05.34-.2.08-.15.4l-.09-.15c0,.54-.07,0-.09.53.13.12.2-.14.34,0,.07-.17,0-.27.11-.45.28-.29,0,.87.25.46.09-.22.18-.64.25-.39l-.11.37c.14.07.19-.53.3-.24-.06.14-.14.1-.13.15,0,.32.11-.2.19-.19l0,.34c.17,0,.39-.23.58-.25a.6.6,0,0,0-.06.3c.25-.12.46.14.63.38l.14-.27s0,.14,0,.19,0-.18.1-.29,0,.18,0,.26c.2-.21.53-.44.62-.1l0,.08c.1.14.26-.56.32-.27l0,0c.24.17.58,0,.68.45.13-.4.22.24.36-.33.09.32,0,.41.19.65,0,0,.16-.34.25-.38l-.07.3.16-.3,0,.37.08-.06a.43.43,0,0,1,0-.23c.14-.12.2.26.17.42l.3-.2a.64.64,0,0,1-.14.22c.2-.28,0,.32.14.07A.94.94,0,0,1,15,4.76c0,.2.15.23.26.17l-.06.21c.16.09.39,0,.59,0a.61.61,0,0,1,.12-.48L15.84,5c.08-.19,0-.14.1-.36.06.06,0,.37-.1.47L16,5c0,.09,0,.14-.08.26.08-.19.08.35.21,0l0,.1c.2,0,.32,0,.48,0,.07-.28.12-.2.22-.41.1.12.17.36.32.38s.09-.23.17-.38c-.05.25.1.26,0,.42a.75.75,0,0,0,.5-.14c0-.11,0-.16,0-.24s.06.12,0,.24l0,0c.34-.32.37.86.7.39l0,0,.27-.22c.08.07-.1.17-.07.34.32-.36.32.15.57-.08-.06.77.5.08.56.59l0-.17c.09-.16,0,.11.05.16,0-.13,0-.17.05-.25.46-.1.76.48,1.13.74.14.09.34-.86.41-.39l-.14.3c.41-.3.62.19,1,0,0,.07-.07.16-.1.15,0,.25.23.08.29-.11,0,0,0,.18,0,.28s.24-.25.21,0c0,0,0,.07-.06.09s.19.08.23-.2c.07.16.24,0,.29.13.14-.28.15.2.29-.21-.14.43.09.41.22.22-.06.13,0,.16-.06.33.08,0,.18,0,.23-.27,0,.57.43-.33.31.36A2.46,2.46,0,0,1,25,7.17c-.14.43-.25,0-.38.42.25-.11.49-.44.66-.28s-.09.18-.13.25c.26-.11.38.16.63,0a.26.26,0,0,1-.07.11s.06.09.12-.11l-.05,0c0-.3.33-.55.38-.69-.24.54.14.19-.19.87a.43.43,0,0,0,.13-.24s0,.12-.07.26c.16-.06.18-.29.3-.24s-.07.12-.12.23c.12-.17.24-.33.31-.22s0,.13-.06.12c.17,0,.44-.4.57-.16-.19.39,0,.16-.09.51L27,8l0-.19c.09,0,.25-.19.28,0l-.11.12h.19l-.05-.17c.15-.15.14-.45.22-.31s.08,0,.06.25h0c.08-.09.16-.2.2-.09s-.14.39-.16.47c.14-.29.23,0,.39-.32A1.24,1.24,0,0,0,28,8l.11-.23A.4.4,0,0,1,28,8c.1.09.11-.46.19-.22,0,0,0,.06-.06.09s.32-.06.42.1c-.08.37-.15,0-.2.37.21,0,.53-.3.69-.15l0,0c.2-.5.05.29.22.09,0,0-.12.27-.1.21.1.12.3,0,.55-.12l-.07.12c0,.14.17.13.23.22.07-.12.11-.09.15-.28,0,.82.61-.23.61.46,0,0-.1.09-.08.1l.23-.06a1,1,0,0,0,0-.32c.07-.12.16-.2.2-.19-.13.12-.12.35-.13.49,0-.07.06-.14.08-.21,0,.42.17-.43.21-.12l0,.11c.07,0,.17-.18.21-.12-.07.26-.1.09-.18.3.08,0,.32-.42.3-.15-.06.06-.1.05-.16.1,0,.33,0,.25,0,.32h0l.08.18V9.16c.34-.62.24-.05.52-.43-.27.36-.1.23-.22.51a.49.49,0,0,1,0,.27c.14-.21,0,.22.24-.09,0,.09.06,0,0,.26.11,0,0-.17.09-.28.24-.27.14.48.47.12a1.18,1.18,0,0,0,.3-.29l.13-.51a1.32,1.32,0,0,1-.19.29.61.61,0,0,1,.08-.35c-.06-.15-.12-.13-.21,0a.8.8,0,0,0,0-.27c-.06,0-.09.35-.15.19s.07-.27.11-.38c-.08.08-.17.25-.26.33a.76.76,0,0,1,.12-.35.53.53,0,0,0-.29.38l0,.11s0-.23,0-.28.09.1.08.2l-.06.06c0,.57.22-.07.32,0L32.45,9l.15-.33a.72.72,0,0,1-.07.4c0,.21.09-.14.13.09a.15.15,0,0,1,0,.08l.09-.12c0,.09,0,.29-.06.23,0,.11.1.07.14,0l1.46-1.66L33,8.61c-.07.05-.14.13-.11,0l0,0c-.22.06-.12.28-.38.56l.18-.73-.13.28s0-.06,0-.17c-.14.17,0,.13-.14.3,0-.29-.28,0-.13-.43-.12.21,0,.2-.13.32.15-.5-.14,0-.14-.21s.15-.08.15-.34C32,8.54,32.08,8,32,8c-.12.34-.19.09-.35.16.05-.11-.14-.27-.2-.43l0,0c-.15.34-.23.23-.34.28a.8.8,0,0,1,.2-.36l-.08,0c0,.11-.1.16-.16.18l.11-.25c-.1,0-.3.23-.37,0-.09.24-.14.71-.33.83a1.28,1.28,0,0,1,.17-.4s-.08.09-.08,0l.13-.2c0-.12-.1.17-.13.13s0-.14.07-.29,0,.09.05,0a.47.47,0,0,1,0-.33c0,.1-.09.25-.14.26s0-.24,0-.36c-.07.13-.09,0-.19.25,0,0,0-.15,0-.23-.1.11-.25,0-.3.27v0h0c-.27.21-.3-.28-.5-.22l0-.09c-.14.07-.24,0-.38.16,0,0,0-.19,0-.3-.1,0-.15.15-.2,0,.13-.14,0-.16.11-.1-.07-.11,0-.27-.23,0,.12-.23,0-.33,0-.27v.19a.16.16,0,0,1-.15-.05l.14-.31c-.08-.45-.59.53-.53-.16-.12.2.06.19-.07.43-.08-.07,0-.56-.06-.57-.07-.22-.27.42-.36.26a.9.9,0,0,1-.24.5c-.08-.07,0-.51.13-.58s0,0,0,.07a.2.2,0,0,0,.1-.2l-.05.11c0-.13-.14-.16-.05-.34a.21.21,0,0,0-.06.26c-.06-.21-.18-.07-.27-.22,0,.07,0,.21,0,.2-.14-.2-.15.19-.29.2,0-.2.16-.41,0-.3,0-.14.08-.31.14-.39-.19.18-.17-.21-.22-.27l.09-.07a.1.1,0,0,1-.11,0l0,.23s-.05-.06,0-.15a3,3,0,0,1-.23.56c0-.13-.18.08-.1-.22.11.14.08-.31.22-.32,0,0-.06,0-.09,0a.29.29,0,0,1,0-.08c-.05-.31-.17.32-.31.27.07-.16.06-.33,0-.3s-.06.29-.16.4c-.05-.16-.13.07-.17,0l0,.08c-.07.16-.11.12-.19.16,0-.14.09-.08.08-.14-.16.27-.06-.36-.23-.19,0-.13.1-.32.08-.41-.18.18-.05-.27-.22-.13a.5.5,0,0,1-.17.38l.25-.1-.23.3c.06,0,.17-.11.19-.06a.46.46,0,0,0-.13.31c0-.37-.22.15-.24-.11l.18-.56c-.06-.3-.34.21-.47,0l0,.12c-.09.21-.12,0-.2.07a1.27,1.27,0,0,0,.05-.4c0,.15-.13,0-.26.32V5.23c-.12-.14-.33.49-.45.38.1-.19.08-.34.21-.46,0,0-.07-.06-.11.07,0-.13-.21.21-.2,0-.05.08-.11.27-.16.24l0-.09c0,.09-.12.1-.14.32,0-.63-.41-.07-.39-.62a.93.93,0,0,1-.36,0s0-.09,0-.06c-.08-.22-.24.52-.33.28S23,5.2,23,5.08c.16-.63-.2,0-.19-.36l0,0c0-.24-.25.18-.36.1l0-.09a.92.92,0,0,1-.51.41c.1-.24.09-.12.14-.37-.07,0-.1.4-.23.44a1.86,1.86,0,0,1,0-.55H22c.05-.35-.13,0-.17-.1l.05-.15c-.17,0-.27.39-.43.32l0,.11c-.19.35,0-.23-.18,0l.08-.39a2.19,2.19,0,0,1-.44.35,2.42,2.42,0,0,1,.43-.52.25.25,0,0,0-.3.15s.09-.11.1-.05c-.15.28-.29.4-.4.36.22-.73-.26-.27-.19-.86-.29.21-.39-.23-.64-.25-.07.59-.08,0-.22.59-.07,0-.09,0-.08,0l-.08-.4c0-.18.09-.12.12-.25-.12-.08,0-.27,0-.44,0,.21-.12.29-.17.19l0,.3c-.25.27,0-.54-.27-.27l.1-.17c-.12.08-.33-.09-.54.36,0-.07,0-.24.07-.27-.2-.13-.61.38-.7,0l.05-.15c-.05,0-.14.26-.15.1s.05-.14,0-.15-.17.23-.2.13L18,3.08c-.17-.25-.43.31-.63.37a.72.72,0,0,0-.09-.7l0-.06c-.24-.11-.51.25-.78.37,0-.5-.43-.31-.6-.62a.6.6,0,0,1-.13.36c0-.09-.22.27-.12-.12h0c.05-.4-.08-.32-.17-.35l-.13.51c0-.8-.65.14-.62-.56-.08.12-.15.11-.23.22l.06-.27a.41.41,0,0,0-.4-.13l.08-.19c-.1,0-.31.77-.41.76l.06-.42c-.18,0-.29-.44-.55-.1,0-.06.05-.18.08-.19s-.28-.35-.36.22c.07-.37-.19-.07-.32.07L12.82,2c-.15.33-.18.43-.31.5s0-.22,0-.15c-.06-.16-.12.25-.2.08l.07-.17c-.09,0-.1.06-.19.25s-.17-.11-.13-.36c0,.15-.14.34-.18.26A.32.32,0,0,1,12,2.23c-.12-.22-.3.26-.35,0a1.26,1.26,0,0,0,0-.16c.13,0,.22.07.21.08.05-.25,0-.31.11-.64-.12.17-.34.55-.42.41V1.81l0,0s0,0-.07,0,0-.08-.07-.09c0-.22-.09-.14-.14-.16,0,.28-.11.22-.09.46,0,0,0,0,.05,0l0,0V2h.13c-.07.13-.13.24-.16.08l-.16.43c0-.4-.09-.63-.06-.88-.18.13-.38,0-.58.53-.06.06,0-.15,0-.24s.06,0,.09-.1c-.11.11-.27,0-.36.36-.08-.19.12-.33,0-.3l0-.1c-.19-.64-.66.83-.85,0a.28.28,0,0,1,0,.13c-.32-.4-.84.17-1.12-.42-.09-.12-.14.11-.23.27l0-.3L7.8,1.8C7.6,2,7.65,1,7.37,1.47v.2c-.07,0-.25.08-.2-.15,0,0-.06.21-.07.1l0-.16L6.9,1.7C6.78,1.57,7,1.09,6.83,1a1.12,1.12,0,0,0-.27.53s.06.11,0,.27l-.08.07a3,3,0,0,0-.1,1.26l.16-.26v.23h-.1c0,.22.09,0,.15-.08a1,1,0,0,0,0,.25l.19-.42c0,.18-.11.35,0,.46.09-.19,0-.41.13-.53,0,.22,0,.39.06.22a.43.43,0,0,1-.07.24c.08-.13.17,0,.24-.27,0,.26.2,0,.12.4,0-.11.16-.33.22-.34-.19.51.19.07.07.62.15-.46.29-.16.46-.4,0,0,0,.11,0,.08s.06.2.09.29A2.29,2.29,0,0,1,8.34,3c0,.39-.14.45-.17.81.05-.31.2-.28.22-.55a1.24,1.24,0,0,1,0,.45c.09-.48.07-.07.18-.36.05.26-.06.46.08.33A.46.46,0,0,1,8.56,4Zm2.67-.36h-.06Zm.21,0-.09,0c0-.09,0-.19.06-.18S11.42,3.54,11.44,3.63Zm-.07-2s0,0,0,.08l-.07,0v0Z"/><path class="cls-1" d="M11.24,2s0,0,0,0v.07l0-.09Z"/><path class="cls-1" d="M30.1,7.54h0v0Z"/><polygon class="cls-1" points="14.22 4.78 14.24 4.71 14.21 4.76 14.22 4.78"/><path class="cls-1" d="M30.9,8.85s0,.05,0,.07A.15.15,0,0,0,30.9,8.85Z"/><path class="cls-1" d="M31.36,9.08l0,.12A.4.4,0,0,0,31.36,9.08Z"/><path class="cls-1" d="M31.68,9.35l.05-.11h0Z"/><path class="cls-1" d="M25.67,7.65h0S25.63,7.68,25.67,7.65Z"/><path class="cls-1" d="M27.64,7.59a.36.36,0,0,1-.1.11S27.59,7.75,27.64,7.59Z"/><polygon class="cls-1" points="23.59 7.37 23.59 7.36 23.58 7.36 23.59 7.37"/><path class="cls-1" d="M27.46,7.67c0,.06,0,.06.08,0S27.5,7.64,27.46,7.67Z"/><path class="cls-1" d="M32.25,8h0v0Z"/><path class="cls-1" d="M32.23,8.05l0,0S32.22,8.08,32.23,8.05Z"/><path class="cls-1" d="M32.15,8.15l.05-.07S32.17,8.07,32.15,8.15Z"/><path class="cls-1" d="M32.76,8.22l0-.1A.22.22,0,0,0,32.76,8.22Z"/><path class="cls-1" d="M32.92,8.21S32.85,8,32.79,8v.08C32.82,8,32.86,8.37,32.92,8.21Z"/><path class="cls-1" d="M32.45,8.32l.1.12c0-.11,0-.26.1-.26C32.61,7.82,32.6,8.42,32.45,8.32Z"/><path class="cls-1" d="M32.12,8c.08,0,.05-.15.08-.21S32.1,7.92,32.12,8Z"/><path class="cls-1" d="M29.29,7l.09-.24C29.32,6.8,29.35,6.88,29.29,7Z"/><polygon class="cls-1" points="28.33 8.1 28.32 8.26 28.42 8.05 28.33 8.1"/><polygon class="cls-1" points="28.59 6.26 28.62 6.23 28.5 6.29 28.59 6.26"/><path class="cls-1" d="M23.74,4.83l-.08.31C23.72,5.09,23.82,4.76,23.74,4.83Z"/><path class="cls-1" d="M21.55,4.54c0-.16,0-.27-.09-.13S21.52,4.57,21.55,4.54Z"/><polygon class="cls-1" points="15.34 2.44 15.41 2.35 15.31 2.41 15.34 2.44"/><path class="cls-1" d="M25.21,12c0,.09,0,.29,0,.25v-.33Z"/><path class="cls-1" d="M25.32,12.57a4.05,4.05,0,0,0,0-.75c0,.32,0,.19-.05.56,0,0,0-.1,0-.22,0,.08,0-.08,0,.13s.05.27.08.06A1.61,1.61,0,0,1,25.32,12.57Z"/><path class="cls-1" d="M27.23,12.91l0,0S27.22,12.91,27.23,12.91Z"/><path class="cls-1" d="M28.43,12.81a.23.23,0,0,0,0,.07A.17.17,0,0,0,28.43,12.81Z"/><path class="cls-1" d="M28.74,13.09h0S28.75,13.12,28.74,13.09Z"/><path class="cls-1" d="M27.23,12.91l.05.1C27.26,12.9,27.24,12.94,27.23,12.91Z"/><path class="cls-1" d="M25.55,11.77a.78.78,0,0,0,0,.09v-.09Z"/><path class="cls-1" d="M26.74,13.26h0v0Z"/><path class="cls-1" d="M26.34,13.36s0-.27,0-.39a.72.72,0,0,1,0,.19Z"/><path class="cls-1" d="M25.67,12.9v0Z"/><path class="cls-1" d="M27,13.28l0,.1Z"/><path class="cls-1" d="M29,6.49l0,0Z"/><polygon class="cls-1" points="29.99 5.43 30.01 5.43 30.16 5.38 29.99 5.43"/><path class="cls-1" d="M29.24,13.3h0S29.24,13.32,29.24,13.3Z"/><path class="cls-1" d="M32.33,11.31c-.19-.17-.15-.29-.38-.47C32,10.92,32.19,11.22,32.33,11.31Z"/><path class="cls-1" d="M25.56,11.81h0S25.57,11.79,25.56,11.81Z"/><polygon class="cls-1" points="31.95 10.84 31.95 10.84 31.93 10.83 31.95 10.84"/><path class="cls-1" d="M30,12.79l-.06-.1Z"/><path class="cls-1" d="M29.25,12.69l0,0S29.26,12.69,29.25,12.69Z"/><path class="cls-1" d="M30.17,12.29s0,0,0,0l0,0S30.19,12.32,30.17,12.29Z"/><path class="cls-1" d="M30.48,12.12l0,0v0Z"/><path class="cls-1" d="M29.81,7.45,30,7.27C29.84,7.41,29.75,7.41,29.81,7.45Z"/><path class="cls-1" d="M25.56,11.93v-.12h0Z"/><path class="cls-1" d="M29.18,10.3h.06A.07.07,0,0,0,29.18,10.3Z"/><path class="cls-1" d="M31.12,8.89h0Z"/><path class="cls-1" d="M29.34,10.22l.12.16,0-.07Z"/><path class="cls-1" d="M30,7.27Z"/><path class="cls-1" d="M29.22,7.38c0,.06.3-.2.47-.32s-.19.2-.32.34c.1,0,.39-.22.4-.19l-.12.11c.25-.16.1.09.41-.12L30,7.27l.38-.34s.2-.13,0,0l-.13.09.09,0c-.24.25-.11.06-.3.23.12,0,.37-.19.32-.1-.25.24-.15,0-.33.26l.05-.13c-.37.39,0-.06-.39.36,0,.13.19,0,.17.08.15-.12.2-.2.35-.32.32-.15-.57.65-.18.4.18-.14.49-.43.37-.24l-.29.26c0,.08.42-.36.29-.12-.12.09-.13,0-.16.08-.18.25.18-.12.21-.1l-.24.24c.09,0,.32-.09.42-.08a1.52,1.52,0,0,0-.22.22c.19-.05.11.18,0,.38l.23-.17s-.08.1-.13.13.14-.12.23-.19-.1.13-.18.18c.22-.12.52-.23.32,0l-.07,0c-.07.11.49-.35.31-.14l-.05,0c0,.16.25.09-.08.39.36-.22-.11.17.39-.15-.23.19-.33.23-.49.35a3.66,3.66,0,0,1,.4-.17l-.28.13.3-.12L31,8.92l.08,0,.21-.1c.14,0-.19.12-.34.16l.26,0L31,9c.31-.07-.32.09,0,0l.24-.05C31,9,31,9,31.09,9l-.21,0c-.06,0,.11,0,.1,0a2.88,2.88,0,0,1,.52,0h-.34a2.53,2.53,0,0,1,.38,0s-.38,0-.49,0h-.16c.21,0-.33,0,0,0h-.09s.1,0,.12,0c.28.06.21.06.44.12h-.15l-.15,0c.12.07.22.1.37.17a2.76,2.76,0,0,1-.39-.16,1.52,1.52,0,0,0,.2.18l.21.12s-.11,0-.21-.11h0c.15.12,0,0-.18,0s-.25-.19-.07,0l0,0a1.19,1.19,0,0,1,.16.23c-.05,0-.12-.15-.24-.25.24.36-.12,0,0,.28-.52-.55-.11.16-.47-.18l.11.14c.09.15-.08-.06-.11-.09s.11.12.16.2c0,.28-.43,0-.66-.05-.07,0,.48.79.18.48L30,9.81c.11.4-.22.12-.15.47,0-.07-.08-.15-.07-.16-.15-.19-.09,0,0,.21,0,0-.09-.15-.15-.23s.1.3,0,.09a.23.23,0,0,1,0-.09c0,.11-.08,0,.07.25-.11-.09,0,.15-.13,0,.12.28-.14-.1.05.29-.21-.4-.24-.28-.17-.08-.05-.13-.09-.12-.16-.29,0,0,0,.11.09.32-.29-.46.08.45-.26-.17A1.45,1.45,0,0,1,29,11c-.17-.42.08-.08-.12-.52,0,.21.11.59,0,.52a1,1,0,0,1-.08-.26c0,.2-.17,0-.15.28a.27.27,0,0,1,0-.12s-.06,0,0,.14V11a4.39,4.39,0,0,1,.22.75c-.19-.56-.13-.11-.35-.82a.9.9,0,0,0,.07.26,1,1,0,0,1-.1-.26c0,.12.08.32,0,.34l-.08-.25c.05.19.09.38,0,.32s-.05-.13,0-.13,0,.53-.09.38c-.11-.42-.07-.13-.19-.49v.12l.07.17s0,.28-.05.17l0-.16,0,.09.08.13c0,.19.14.45.06.36s0,0-.12-.2h0c0,.12,0,.25,0,.17s-.11-.4-.13-.47c.07.3-.06.1,0,.43a1.73,1.73,0,0,0-.08-.31l.05.25a.93.93,0,0,1-.09-.26c-.06,0,.14.45,0,.27,0,0,0-.05,0-.09s-.09.18-.18.08c-.1-.36,0-.1-.06-.41-.06.09-.07.48-.17.41l0,0c.1.52-.11-.24-.1,0a2.24,2.24,0,0,0,0-.23c-.07-.07-.09.15-.14.33l0-.14c0-.11-.1-.05-.14-.1a1.36,1.36,0,0,0,0,.31c-.23-.75-.15.45-.34-.18a.24.24,0,0,0,0-.12l-.07.13c0,.23,0,.14.07.32s0,.24,0,.24a1.57,1.57,0,0,0-.08-.49c0,.07,0,.15,0,.22-.09-.4.05.46,0,.2v-.13c0,.07,0,.23-.05.2,0-.26,0-.13,0-.35,0,0,0,.52-.07.25,0-.07,0-.08,0-.15-.07-.31-.07-.23-.1-.28h0l-.08-.14,0,.09c0,.69-.08.13-.1.59a2.1,2.1,0,0,0,0-.55,1.19,1.19,0,0,1-.05-.26c0,.25-.06-.19-.07.17,0-.1,0,0,0-.25,0,.08,0,.17,0,.29,0,.34-.15-.4-.21.06-.05.19-.06.52-.12.69a1.62,1.62,0,0,1,0-.36c0-.14-.06-.11-.09,0,0-.08,0-.15,0-.26s0,.35-.05.21,0-.29,0-.39c0,.08-.05.27-.09.36a1.83,1.83,0,0,1,0-.37.86.86,0,0,0-.1.42l0,.1a1.41,1.41,0,0,1,0-.28c0-.22,0,.09,0,.19l0,.06c0,.57.09-.09.14-.06v.42l0-.35a1.77,1.77,0,0,1,0,.4c0,.21,0-.15.06.08a.26.26,0,0,1,0,.07l0-.12c0,.09,0,.29,0,.23.07.24.09-.31.12,0v0c.08-.15,0-.31,0-.67l.08.75v-.3s0,0,0,.15c0-.21,0-.13,0-.33.06.28.11-.14.15.35,0-.23-.05-.18,0-.34.05.52,0-.1.1.14s0,.13,0,.37c0-.46.09.09.11,0,0-.36.06-.16.11-.28,0,.12.12.19.19.31v.06c0-.37,0-.3.05-.39a2.53,2.53,0,0,1,0,.41h0a.59.59,0,0,1,0-.22l0,.27s0-.33.14-.16a5.25,5.25,0,0,1-.12-.88,2.16,2.16,0,0,1,.06.43s0-.11,0-.06v.24c0,.09,0-.2,0-.18,0,.2,0,.14.06.29s0-.07,0,0a.71.71,0,0,1,.11.29A.79.79,0,0,1,27,13s.05.23.1.33c0-.14,0,0,0-.3,0,0,0,.14.06.21,0-.13.12-.05,0-.36v0h0c0-.3.21.13.26,0l0,.1c0-.12.1-.09.08-.31a.75.75,0,0,1,.1.29c0-.08,0-.19.09,0s.05.14,0,.13.11.22.1-.05c0,.25.12.3.12.22L27.87,13s.05,0,.08,0l.07.32c.2.37,0-.71.26-.08,0-.23-.1-.14-.15-.41.05,0,.23.48.25.48s-.08-.49,0-.39a1.63,1.63,0,0,1-.12-.53,1.68,1.68,0,0,1,.2.56s0,0,0-.06a.39.39,0,0,0,0,.22l0-.12c.06.11.12.08.16.27a.31.31,0,0,0-.09-.24c.11.14.1,0,.19.07a.68.68,0,0,1-.07-.2c.14.12,0-.22,0-.29.09.16.13.41.14.25a1,1,0,0,1,.12.39c0-.23.16.11.21.13v.11c0-.06,0-.07,0-.07l-.1-.22a.2.2,0,0,1,.08.12,4.48,4.48,0,0,1-.18-.58c.06.11,0-.14.14.15-.11-.08.11.29.07.36s0,0,0,0a.41.41,0,0,1,0,.08c.16.24-.09-.34,0-.36.05.17.13.31.13.27s-.12-.27-.14-.41c.1.11,0-.12,0-.11l-.05,0c-.05-.17,0-.16,0-.22,0,.13,0,.1,0,.15-.09-.3.19.27.16.06.07.1.13.3.18.37,0-.23.15.2.14,0a.92.92,0,0,1-.14-.39l0,.2-.07-.35s0,.16,0,.13a.72.72,0,0,0-.11-.31c.17.32,0-.22.13,0l.23.55c.17.21,0-.33.14-.23l-.07-.09c-.09-.21,0-.05,0-.15a3.29,3.29,0,0,0,.19.35c-.06-.14.07,0-.09-.38l.15.22c.12.06-.16-.55-.07-.52a4.69,4.69,0,0,1,.19.48s.05,0,0-.11c.07.1-.05-.27.05-.11,0-.09-.12-.27-.09-.27l0,.09a1,1,0,0,0-.14-.32c.35.51.15-.13.46.3a.42.42,0,0,1,.07-.2c0,.05.05.08,0,.07.15.13-.25-.51-.08-.37s.05.17.13.26c.33.56,0-.11.27.19v0c.14.16-.05-.27,0-.26l.05.09a1.09,1.09,0,0,1-.13-.55,1.68,1.68,0,0,0,.2.34s-.23-.35-.23-.44a4.19,4.19,0,0,1,.34.42l0,0c.21.29.05,0,.1,0l.09.14c0-.09-.18-.42-.1-.44l-.07-.09c-.18-.35.15.16,0-.11l.23.32a2.64,2.64,0,0,1-.13-.46,3.27,3.27,0,0,1,.24.58s.07-.08,0-.25c0,0,.06.12,0,.08-.14-.27-.2-.42-.15-.45.44.62.24.06.63.51-.09-.29.24,0,.33-.15-.42-.43,0,0-.38-.51,0,0,0,0,0,0l.31.22c.13.12.06.12.16.22s.19.18.34.26c-.16-.15-.19-.25-.1-.22l-.24-.16c-.14-.31.42.31.28,0l.11.17c0-.11.2-.19-.13-.57.06,0,.2.13.21.19.19-.11-.19-.6.13-.54l.12.08c0-.05-.21-.18-.06-.14s.12.08.14.07-.19-.19-.1-.19l.14.11c.26-.08-.26-.4-.32-.53a1.18,1.18,0,0,0,.37.07.5.5,0,0,0,.3-.07l.06,0c.09-.21-.26-.42-.44-.59.48-.08.22-.35.44-.56a.88.88,0,0,1-.39,0c.08-.06-.32-.06.08-.12h0c.39-.1.27-.17.25-.24l-.51.11c.35-.17.24-.27.13-.34s-.24-.1.05-.29c-.14,0-.16,0-.3,0l.25-.13c0-.15,0-.23-.13-.29l.19-.09c0-.07-.73.39-.77.35l.33-.26c-.06-.09.16-.4-.21-.24a.77.77,0,0,1,.17-.11s.1-.33-.33.06c.29-.25,0-.11-.2,0l.22-.18c-.3.21-.37.27-.48.29s.15-.16.11-.09c.08-.14-.22.15-.14,0L32.12,7s-.08,0-.25.14,0-.11.17-.29c-.12.1-.28.23-.25.16l.14-.12c.09-.19-.31.14-.15-.08l.12-.13c0,.05.06.1,0,.11a3,3,0,0,1,.47-.46c-.17.1-.52.35-.47.23L32,6.49h0s0,0-.05,0a.2.2,0,0,0,0-.08c.15-.15,0-.11,0-.14a2.55,2.55,0,0,0-.33.33s0,0,0,0h0l.06,0c-.12.09-.22.16-.12,0l-.35.29c.26-.29.37-.48.53-.66a1,1,0,0,0-.59.29c-.07,0,.09-.12.15-.18s0,0,.11-.06c-.13.06-.12,0-.4.2.09-.15.27-.22.18-.22l.09-.07c.36-.49-.84.47-.37-.14a.41.41,0,0,1-.09.1c.17-.33-.45-.07-.1-.49.07-.1-.13,0-.3.11l.25-.17-.31.14c-.26.07.59-.45.13-.28l-.17.1s-.15,0,.06-.12c0,0-.19.08-.1,0l.15-.07-.28.05c.09-.09.59-.23.59-.29a4.77,4.77,0,0,0-.55.13.92.92,0,0,1-.23.11H30a4,4,0,0,0-1.18.47l.29,0-.2.1,0,0c-.18.11,0,.07.13,0a.7.7,0,0,0-.21.13L29.24,6c-.17.09-.35.11-.42.21.2-.06.36-.2.51-.2-.18.11-.34.18-.16.14a.73.73,0,0,1-.24.09c.15,0,.1.07.33,0-.21.15.12.07-.27.28a1.08,1.08,0,0,1,.37-.09c-.49.21,0,.12-.46.4.43-.21.27,0,.53-.06l-.09,0s-.11.14-.17.22a4.17,4.17,0,0,1,.65-.34,6,6,0,0,1-.68.48c.26-.19.31-.11.51-.29a3,3,0,0,1-.31.31c.39-.3.08,0,.34-.19-.16.19-.35.3-.2.25A.63.63,0,0,1,29.22,7.38Zm1.49.39Zm.07.06,0,0,.14-.13A1.11,1.11,0,0,0,30.78,7.83ZM32,6.33s0,0,0,.07h0l0,0Z"/><path class="cls-1" d="M31.75,6.57h0l0,0,.06-.06Z"/><path class="cls-1" d="M27.2,12.87h0l0,0Z"/><polygon class="cls-1" points="30.98 8.92 31.05 8.89 30.99 8.91 30.98 8.92"/><path class="cls-1" d="M26.53,12l0-.07Z"/><path class="cls-1" d="M26.3,12l0-.09A.41.41,0,0,0,26.3,12Z"/><path class="cls-1" d="M26.12,11.84V12h0Z"/><path class="cls-1" d="M28.56,10.94h0C28.55,10.87,28.55,10.89,28.56,10.94Z"/><path class="cls-1" d="M28,11.81v-.13S28,11.66,28,11.81Z"/><polygon class="cls-1" points="29.18 10.3 29.18 10.3 29.18 10.3 29.18 10.3"/><path class="cls-1" d="M28.05,11.67c0-.05,0,0,0,0S28.05,11.72,28.05,11.67Z"/><path class="cls-1" d="M25.41,11.74h0v0Z"/><path class="cls-1" d="M25.4,11.78v0S25.4,11.81,25.4,11.78Z"/><path class="cls-1" d="M25.37,11.88l0-.07S25.38,11.8,25.37,11.88Z"/><path class="cls-1" d="M25.63,11.87v0Z"/><path class="cls-1" d="M25.69,11.84s0-.22-.06-.15v.08C25.63,11.62,25.68,12,25.69,11.84Z"/><path class="cls-1" d="M26.05,13.08,26,13c0,.11.05.26,0,.28C26.1,13.6,26,13,26.05,13.08Z"/><path class="cls-1" d="M26.26,13.22c0,.06,0,.16,0,.22A.34.34,0,0,0,26.26,13.22Z"/><path class="cls-1" d="M27.68,13l.06.25S27.71,13.16,27.68,13Z"/><polygon class="cls-1" points="27.63 11.66 27.57 11.51 27.61 11.74 27.63 11.66"/><polygon class="cls-1" points="28.24 13.38 28.24 13.42 28.26 13.32 28.24 13.38"/><path class="cls-1" d="M30.54,12.37l-.15-.27C30.4,12.15,30.56,12.47,30.54,12.37Z"/><path class="cls-1" d="M31.29,11.54c.1.13.18.19.11.06S31.28,11.5,31.29,11.54Z"/><polygon class="cls-1" points="33.45 8.28 33.56 8.28 33.45 8.24 33.45 8.28"/><path class="cls-1" d="M3.29,2.09l.39.22h0l0,0-.08,0-.28-.16,0,0A.2.2,0,0,1,3.29,2.09Z"/><path class="cls-1" d="M3.15,2.06c.06-.09.06-.12.06-.13s0,0,0,0,0,.07-.05.1l0,0s0,0,0,0,0,0,0-.06S3.2,2,3.15,2.06Z"/><path class="cls-1" d="M2.16,2.94l0,0S2.16,2.93,2.16,2.94Z"/><path class="cls-1" d="M3.73,4.16s0,0,0,.07S3.74,4.18,3.73,4.16Z"/><path class="cls-1" d="M4.25,4.39h0S4.26,4.41,4.25,4.39Z"/><path class="cls-1" d="M2.16,2.94,2.08,3C2.18,3,2.15,3,2.16,2.94Z"/><path class="cls-1" d="M3.3,1.94l0,0,0,0Z"/><path class="cls-1" d="M1.89,2V2l-.12-.07Z"/><path class="cls-1" d="M2.44,1.17s.12.24.18.35c-.05-.1-.07-.16-.06-.19Z"/><path class="cls-1" d="M3.75,2l0,.05Z"/><path class="cls-1" d="M1.75,2.58l-.09,0Z"/><path class="cls-1" d="M3.91,4V4Z"/><polygon class="cls-1" points="3.41 2.68 3.41 2.66 3.35 2.52 3.41 2.68"/><path class="cls-1" d="M5.2,4.15h0S5.2,4.18,5.2,4.15Z"/><path class="cls-1" d="M1.79.24c.18.19.06.33.29.53C2,.68,2,.34,1.79.24Z"/><path class="cls-1" d="M3.31,2h0Z"/><polygon class="cls-1" points="2.08 0.77 2.08 0.77 2.1 0.79 2.08 0.77"/><path class="cls-1" d="M5.77,2.34h0Z"/><path class="cls-1" d="M5,3.44H5Z"/><path class="cls-1" d="M5.28,1.7s0,0,0-.05h0S5.32,1.67,5.28,1.7Z"/><path class="cls-1" d="M5,1.1l0,0H5Z"/><path class="cls-1" d="M4.07,2l.09.24C4.09,2,4.11,1.92,4.07,2Z"/><path class="cls-1" d="M3.3,1.94h0Z"/><path class="cls-1" d="M3.48,2.27l0,0Z"/><path class="cls-1" d="M1.78,2.23v0S1.78,2.2,1.78,2.23Z"/><polygon class="cls-1" points="3.38 2.34 3.37 2.34 3.37 2.34 3.38 2.34"/><path class="cls-1" d="M4.16,2.19Z"/><path class="cls-1" d="M4,4l.15-.21c.1-.1-.22.29-.13.19L4.22,1.6v0c0,.11.1.43.07.43s0-.08-.06-.15c.07.29-.1,0,0,.42l0-.09.17.48s0,.23,0,0c0,0,0-.09,0-.17v.11c-.13-.32,0-.12-.09-.37,0,.13,0,.42,0,.34-.11-.33,0-.14-.09-.41l.09.1c-.21-.49,0,0-.17-.5-.09-.08,0,.18-.12.11,0,.18.09.27.13.45,0,.36-.31-.8-.26-.34,0,.22.14.64,0,.43l-.08-.38c-.07,0,.09.55,0,.32s0-.14,0-.18c-.12-.29,0,.22,0,.23l-.08-.34c-.06.07-.09.33-.17.41a1.67,1.67,0,0,0,0-.31c-.08.18-.23,0-.34-.2v.3a.71.71,0,0,1,0-.19c0-.11,0,.19,0,.3s-.05-.16,0-.25c0,.25-.16.55-.25.24V2.29c-.06-.12,0,.6-.1.33V2.57c-.13-.12-.28.14-.36-.3,0,.42-.11-.2-.15.39a2.76,2.76,0,0,0-.1-.6s-.07.36-.11.42l0-.31-.08.32,0-.37,0,.08a.78.78,0,0,1,0,.22c-.07.14-.09-.22-.07-.38l-.14.24a.79.79,0,0,1,.07-.23c-.1.28,0-.27,0-.08L2.75,3.2h0l-.25,0c.19,0,.19-.06.11-.09h.21S2.69,3,2.7,3a1.75,1.75,0,0,1-.5-.06l.32,0a1.91,1.91,0,0,1-.36,0A2.31,2.31,0,0,1,2.63,3l-.11,0,.27,0c-.2,0,.33,0,0-.05l.09,0s-.09-.09-.1-.13a2.31,2.31,0,0,1-.41-.17c.1,0,.32,0,.31,0s-.21-.1-.36-.19c.24.11.23.06.39.16,0-.05,0-.06-.17-.23l-.21-.12s.11,0,.21.11h0c-.14-.14.05-.07.19,0s.26.18.09,0l0,0c-.05-.08-.11-.16-.15-.24s.11.15.22.27c-.2-.31,0-.07,0-.16l0-.07c.19.33.18.31.17.26s0-.13.06.1l-.05-.17c0-.17,0,.1.05.14L3,2.27c0-.23.17.25.13.41s.2-.9.13-.48l-.09.32c.16-.37,0,0,.2-.26l-.1.14c-.08.12,0,0,.12-.14l-.06.09-.06.06h0l0,0,0,0h0l.07-.06c-.1.08.1-.07,0,0l.09-.06h0l.1,0h0l.08,0-.1,0h0c-.06,0-.07,0-.07,0h0l.14,0a.48.48,0,0,1,.19.09,2.61,2.61,0,0,0-.5-.12c.18,0,.55.16.43.17l-.26-.1c.16.09,0,0,.15.15l-.1-.07s-.06,0,.11.09l0,0a3.5,3.5,0,0,1,.6.49,7.56,7.56,0,0,1-.7-.54l.2.18L3.4,2.44a1.65,1.65,0,0,1,.22.24L3.45,2.5c.13.13.24.3.18.24l-.08-.11s.23.47.09.32l-.15-.36h0l0,.15s0,.27,0,.15l0-.15s0,0,0,.07a.74.74,0,0,0,0,.14c0,.19.07.46,0,.37s0,0-.06-.23h0c0,.12,0,.25-.06.15s0-.41.06-.48c0,.3,0,.08-.13.4,0-.08.08-.27.09-.31l-.08.24c0-.08,0-.11.08-.26s-.15.45-.12.24L3.4,3c0-.1-.15.11-.12,0,.22-.31.08-.06.25-.32,0,.06-.35.29-.33.17l0,0c-.43.31.18-.2,0-.07l.2-.12c.06-.07-.14,0-.32,0l.13,0c.1-.07.05-.08.1-.11-.13,0-.12,0-.31.06.38-.12.27-.1.15-.13s-.25-.1.07,0l.12,0-.12,0a1.78,1.78,0,0,0-.31-.08c-.13-.05-.22-.11-.21-.13a2.44,2.44,0,0,0,.47.17l-.2-.08c.38.14-.42-.21-.14-.14l.1.06C2.82,2.15,2.7,2,2.75,2c.21.16.08.1.27.22,0,0-.36-.36-.14-.21,0,.07,0,.08.08.13l.23.18h0l0,0v0h0l-.14-.15h0l0,0,0,0c0,.06-.06-.07-.07-.11s0-.06,0-.06,0,0,0-.22a3,3,0,0,0,.18.5h0a.2.2,0,0,1,0-.05v0h0a.38.38,0,0,1,0-.26s0,0,0,0S3.43,1.9,3.5,2c-.21,0-.2,0-.21,0s.06,0,0,0h0a.38.38,0,0,1-.05-.08l0,0s0-.12-.06-.13,0,0,0,0,0,0,0,0V1.81c0-.05,0,0,0,0v.06c0,.28.08.25.07.16s0-.13,0-.12a.07.07,0,0,0,0,.05s0,0,0,0l.12.17A.74.74,0,0,0,3.33,2c-.07,0,.2.06.22.15.23,0-.1-.1.13-.15a.08.08,0,0,1,.07,0,.39.39,0,0,0-.14-.08c.09,0,.28-.1.24,0,.14-.37-.38-.1-.19-.35h0c-.15,0-.19,0-.24.12s-.14.19-.23.34a2.49,2.49,0,0,0,.21-.72l-.11.29s0-.05,0-.17c-.1.2,0,.14-.08.33,0-.29-.14.12-.22-.36,0,.24.09.17.05.34-.12-.51-.05.1-.16-.11s.05-.15-.11-.35c.12.44-.19,0-.23.09.19.31-.06.22,0,.38-.08-.09-.28,0-.44.05L2,1.73c.3.2.2.25.25.34a.87.87,0,0,1-.36-.2L1.9,2a.48.48,0,0,1,.18.15L1.82,2c0,.12.27.27.08.37a3,3,0,0,1,.88.06,3.91,3.91,0,0,1-.43,0s.12,0,.06,0l-.24,0c-.1,0,.2,0,.18.06-.2,0-.14,0-.3,0s.08,0,0-.05a.52.52,0,0,1-.3.14.87.87,0,0,1,.3,0c0,.09-.23.06-.33.13.14,0,0,.09.3,0,0,0-.13.05-.2.08.14,0,.09.21.38.06h0c.31,0-.06.31.13.37l-.09.06c.14,0,.16.11.36,0,0,0-.1.16-.2.23.1,0,.18-.08.13.1s-.09.13-.13,0c0,.13-.08.27.17.12-.19.18-.14.3-.05.27A1.33,1.33,0,0,1,2.6,3.9.12.12,0,0,1,2.71,4l-.2.26c0,.24.2.15.34.06s.24-.17.26.18c.11-.21-.09-.19,0-.44.06.07.1.56.15.57.17.19.18-.48.32-.36a1.14,1.14,0,0,1,0-.55,1,1,0,0,1,.12.58s0,0,0-.06a.24.24,0,0,0,0,.23V4.34c.07.11.21.07.22.27a.18.18,0,0,0-.08-.25c.18.14.2-.05.38,0,0-.06-.12-.18-.1-.19.23.06,0-.24.06-.33.14.13.19.39.22.2a.46.46,0,0,1,.2.36c0-.27.3,0,.4,0v.12a.14.14,0,0,1,.06-.12l-.19-.15c.06,0,.09,0,.15,0C5,4.13,4.74,4,4.65,3.79c.12.06,0-.18.24,0-.18,0,.25.2.18.34,0,0,0-.07.08-.08a.15.15,0,0,1,0,.07c.32.07-.21-.29-.11-.4.13.12.29.17.27.13S5.11,3.72,5,3.6c.17,0,0-.14,0-.16H5c-.14-.11-.1-.13-.12-.2s0,.09.12.11c-.25-.21.35,0,.2-.16.13,0,.31.14.4.13-.17-.19.28,0,.14-.22a.55.55,0,0,1-.38-.16,1.47,1.47,0,0,1,.1.22l-.29-.22s.1.15,0,.17A.46.46,0,0,0,4.88,3c.36.07-.15-.18.1-.17L5.54,3c.3-.08-.23-.31-.07-.45l-.11.05c-.22-.05,0-.11-.11-.17a.88.88,0,0,0,.39,0c-.14,0,0-.14-.38-.14l.26-.09C5.61,2,4.94,2,5,1.92c.21,0,.34-.11.51,0,0,0,0-.1-.12-.07.12-.06-.29-.05-.12-.15-.09,0-.29.08-.29,0l.09,0c-.09,0-.14,0-.33.1.26-.17.21-.26.15-.32s-.13-.09,0-.3A1.36,1.36,0,0,1,4.63,1S4.7,1,4.69,1c0-.21-.43.38-.37.16s.16-.1.21-.22c.39-.52-.18,0,0-.37l0,0c0-.23-.28.11-.34,0a.41.41,0,0,0,0-.09,1.31,1.31,0,0,1-.46.39A1.2,1.2,0,0,0,3.93.49c-.05,0-.13.4-.22.44,0-.14,0-.27.07-.54h.08c.06-.35-.11,0-.13-.08l0-.15c-.15,0-.22.4-.33.35V.64c-.1.38,0-.22-.12.06V.31c-.06.09-.18.37-.24.45A1.6,1.6,0,0,1,3.29.14c-.06,0-.18,0-.2.22,0,0,0-.13.06-.07C3.09.6,3,.75,3,.75,2.9,0,2.71.59,2.52,0c-.11.31-.41,0-.62.14.33.5,0,0,.24.58,0,.06,0,.06-.06,0L2,.67,1.77.53c-.12-.13,0-.14-.1-.25S1.48.08,1.32,0c.14.17.14.28,0,.26L1.6.43c.06.35-.43-.32-.37,0L1.15.29c0,.14-.27.24,0,.63C1.13.88,1,.78,1,.73c-.21.11.14.65-.18.59L.69,1.23c0,.05.21.2.06.16S.63,1.3.61,1.31s.18.21.09.2L.57,1.4c-.27.08.24.43.29.58C.45,1.81.27,1.9.18,2l-.06,0c-.12.2.25.45.39.65-.49,0-.25.35-.51.54a.83.83,0,0,1,.39,0c-.09.05.31.11-.1.12v0c-.37,0-.3.13-.29.2l.11,1,1,.22h0l.09-.52c0,.78.41-.23.41.46,0-.13.09-.13.13-.25l0,.28c.09.08.14.12.27.06l0,.2c.08,0,.13-.81.19-.83v.42c.12,0,.25.37.36,0a.56.56,0,0,1,0,.2s.23.28.19-.3c0,.38.12,0,.17-.14v.28c0-.36,0-.46.09-.56s0,.22,0,.15c.07.14,0-.27.1-.13v.18c.06,0,0-.08,0-.29s.12.06.16.31c0-.15,0-.36,0-.29a.39.39,0,0,1,0,.18c.13.18.1-.34.21-.08a.74.74,0,0,0,0,.16c-.07,0-.14,0-.14,0a2.56,2.56,0,0,1,.11.65c0-.2,0-.63.13-.52l0,.08v0s0,0,0,0,0,.07.06.07c0,.21.1.1.14.1a1.85,1.85,0,0,0-.1-.46,0,0,0,0,1,0,0v0l-.07,0c0-.14,0-.26.06-.12l-.05-.45c.12.38.25.56.32.8.06-.18.21-.16.13-.69,0-.07.07.14.1.22s0,.05,0,.13c0-.15.14-.1,0-.46.11.14.06.34.13.26l0,.11c.37.5,0-1,.42-.34a.63.63,0,0,1-.07-.12.24.24,0,0,0,.14,0l1-.06-.86-1c-.2-.23-.56,0-.66-.47-.06-.13-.13.1-.22.26L4.32,2c-.06.11-.1.22-.15.33S4,1.54,3.83,2l0,.21c-.06,0-.15.13-.17-.11,0,0,0,.22,0,.11l0-.15a2.45,2.45,0,0,0-.08.29c-.13-.09-.12-.63-.31-.61a1,1,0,0,0,0,.59s.09.07.14.22v.09c.14.45.33.89.44,1.19a2.3,2.3,0,0,1-.06-.28l.06.22v0c.07.2,0,0,0-.11L3.89,4a3.64,3.64,0,0,1-.07-.44L3.89,4c0-.2-.07-.4-.07-.54,0,.21.05.38,0,.2l0,.25c0-.14,0-.06,0-.31,0,.26,0-.07,0,.37a2.27,2.27,0,0,1,0-.36,1.29,1.29,0,0,0,0,.29v.05l0,.17,0-.15a.15.15,0,0,1,0-.07L4,3.71s0,.11,0,.09a1.38,1.38,0,0,1-.08.25,4.14,4.14,0,0,1,.3-.65A3.93,3.93,0,0,1,4,3.78L4,3.94l0,.09h0L4,3.86l.13-.23L3.94,4a1.45,1.45,0,0,1,.19-.31C4.07,3.8,4,3.89,4,4S4,4,4,4ZM3.38,2.58h0l0,0Zm-.1,0h0a.54.54,0,0,1,0,.19A1,1,0,0,0,3.28,2.6Zm.59,1.87s0,0-.05-.06l0,0v0Z"/><path class="cls-1" d="M3.83,4.1v0l0-.06v.09Z"/><path class="cls-1" d="M2.2,2.9h0l0,0Z"/><polygon class="cls-1" points="1.9 2.1 1.89 2.17 1.9 2.11 1.9 2.1"/><path class="cls-1" d="M3.11,2.35l.06,0Z"/><path class="cls-1" d="M3.19,2.35l0,0,0,0h0l-.15-.17h0l.15.16h0l0,0Z"/><polygon class="cls-1" points="3.17 2.35 3.17 2.35 3.17 2.35 3.17 2.35"/><path class="cls-1" d="M3.44,2.44h0S3.4,2.41,3.44,2.44Z"/><path class="cls-1" d="M3.51,3.1V3S3.51,2.94,3.51,3.1Z"/><polygon class="cls-1" points="3.48 2.27 3.48 2.27 3.48 2.27 3.48 2.27"/><path class="cls-1" d="M3.54,3c0-.06,0,0,0,0S3.53,3,3.54,3Z"/><polygon class="cls-1" points="3.23 1.8 3.23 1.81 3.23 1.82 3.23 1.8"/><path class="cls-1" d="M3.23,1.82h0Z"/><path class="cls-1" d="M3.22,1.87v0Z"/><path class="cls-1" d="M3.34,2Z"/><path class="cls-1" d="M3.2,2h0l.09,0h0L3.19,2Z"/><path class="cls-1" d="M3.12,1.26l.14.09c0-.11,0-.26,0-.28C3.09.73,3.31,1.31,3.12,1.26Z"/><path class="cls-1" d="M2.65,1.22c.06-.08-.06-.15-.09-.2C2.55,1.13,2.55,1.16,2.65,1.22Z"/><path class="cls-1" d="M2.38,3.64l-.2.17C2.25,3.83,2.25,3.74,2.38,3.64Z"/><polygon class="cls-1" points="3.44 2.82 3.51 2.68 3.38 2.88 3.44 2.82"/><polygon class="cls-1" points="2.89 4.57 2.85 4.59 2.99 4.54 2.89 4.57"/><path class="cls-1" d="M5.23,1.05,5,1.24C5.05,1.24,5.35,1.05,5.23,1.05Z"/><path class="cls-1" d="M3.47.35c0-.16,0-.27-.08-.11S3.45.39,3.47.35Z"/><polygon class="cls-1" points="1.27 4.57 1.22 4.67 1.29 4.59 1.27 4.57"/></g></g></svg>