<svg xmlns="http://www.w3.org/2000/svg" viewBox="0 0 46.48 26.21"><defs><style>.cls-1{fill:#202020;}</style></defs><g id="Layer_2" data-name="Layer 2"><g id="Layer_2-2" data-name="Layer 2"><path class="cls-1" d="M41.49.39c0,.09,0,.28.08.24l0-.34Z"/><path class="cls-1" d="M42,1a1.18,1.18,0,0,0,.07-.75c-.06.32-.09.19-.15.57-.07,0-.13-.1-.13-.22,0,.09-.11-.06-.14.15s.23.25.34,0A.55.55,0,0,1,42,1Z"/><path class="cls-1" d="M38.5,3.23l0,0A.06.06,0,0,0,38.5,3.23Z"/><path class="cls-1" d="M34.67,5.18s0-.06,0-.09S34.65,5.16,34.67,5.18Z"/><path class="cls-1" d="M33.86,5.22h0S33.85,5.19,33.86,5.22Z"/><path class="cls-1" d="M38.5,3.23l-.15,0C38.39,3.3,38.44,3.24,38.5,3.23Z"/><path class="cls-1" d="M42.91.11a.35.35,0,0,0-.06.09l.06,0Z"/><path class="cls-1" d="M40,2.07l0,0,0-.13Z"/><path class="cls-1" d="M41.24,1.3s.1.26.15.37a.38.38,0,0,1,0-.2A.94.94,0,0,0,41.24,1.3Z"/><path class="cls-1" d="M43.31,1.23l0,0Z"/><path class="cls-1" d="M39.07,2.53A.18.18,0,0,0,39,2.45Z"/><path class="cls-1" d="M4.37,23.7l0,0S4.36,23.71,4.37,23.7Z"/><polygon class="cls-1" points="2.24 23.23 2.25 23.21 2.19 23.07 2.24 23.23"/><path class="cls-1" d="M32.51,5.56h0S32.52,5.53,32.51,5.56Z"/><path class="cls-1" d="M21.84,11.66c.25.16,0,.4.28.54C22.05,12.11,22.08,11.72,21.84,11.66Z"/><path class="cls-1" d="M43,.15H43A.06.06,0,0,0,43,.15Z"/><path class="cls-1" d="M22.12,12.2h0l0,0Z"/><path class="cls-1" d="M29.9,7.21,30,7.3A.37.37,0,0,0,29.9,7.21Z"/><path class="cls-1" d="M32.1,6.44H32A.1.1,0,0,0,32.1,6.44Z"/><path class="cls-1" d="M29.05,8.13s-.07,0-.09,0l0,0S29,8.11,29.05,8.13Z"/><polygon class="cls-1" points="27.96 8.73 28.01 8.77 28.04 8.74 27.96 8.73"/><path class="cls-1" d="M7.67,21.84a1.62,1.62,0,0,1-.17-.19C7.61,21.82,7.48,22,7.67,21.84Z"/><path class="cls-1" d="M42.92.27q0-.11,0-.12a.05.05,0,0,0,0,0A.28.28,0,0,0,42.92.27Z"/><path class="cls-1" d="M30.07,10.1l-.19.06A.7.7,0,0,0,30.07,10.1Z"/><path class="cls-1" d="M15.56,17.66l0,.05A0,0,0,0,0,15.56,17.66Z"/><path class="cls-1" d="M29.39,10.48a.47.47,0,0,0-.19-.12.2.2,0,0,0,0,.07Z"/><path class="cls-1" d="M7.5,21.64h0Z"/><path class="cls-1" d="M6.65,22.84c.17-.08-.08-.37-.15-.57.15-.2.22.19.38.32.08-.15,0-.5.11-.53s.07.06.08.14c0-.33.39-.22.37-.63l.06.07a3.07,3.07,0,0,1-.26-.43c.08-.05,0-.28.18-.08,0,0,0,.1,0,.18l0-.13c.23.27,0,.16.07.39.1-.18.15-.53.31-.5.18.29-.22.24.07.43l-.24,0c.39.4-.13,0,.26.46.29,0,.19-.29.48-.33,0-.19-.15-.23-.18-.43.18-.48.66.62.7.09,0-.24-.22-.63.06-.52l.12.37c.25-.09-.12-.56.24-.46,0,.16-.12.21-.07.23.3.19,0-.25.13-.31l.19.29c.22-.18.38-.54.62-.73,0,.09,0,.21.15.27a1.4,1.4,0,0,1,1.17-.34v-.33s.12.09.11.16c.18,0-.08-.17-.07-.31s.18.1.17.21c.11-.34.4-.82.79-.67v.1c.24,0-.07-.64.23-.49v.07c.47-.1.79-.58,1.31-.35-.14-.41.48-.05.23-.58.37.13.36.26.77.26.1,0,0-.39,0-.5l.15.27v-.36l.25.28.06-.12a.3.3,0,0,1-.18-.16c.09-.21.48,0,.56.12l.25-.43a.44.44,0,0,1,0,.28c.05-.38.18.27.23-.08-.06-.05-.07-.17-.1-.23a.37.37,0,0,0,.5-.14l.08.2c.3-.1.53-.4.84-.56-.16,0-.31-.37-.23-.45l.19.27c0-.21-.15-.05-.15-.34.13,0,.25.29.24.42l.08-.18c.06.08.05.15.1.26,0-.21.4.16.31-.19l.06.08c.31-.17.39-.34.64-.49-.13-.25,0-.25,0-.49.22,0,.53.07.75-.08s-.07-.23-.08-.42c.13.22.34.08.32.31a1.72,1.72,0,0,0,.55-.6c-.08-.07-.15-.09-.17-.17s.19,0,.24.13v0c.2-.54,1.23.18,1.28-.45v0L22,14c.16,0,0,.22.18.3.14-.56.57-.24.71-.64.57.55.74-.46,1.26-.19l-.1-.15c0-.19.13,0,.21.05s-.16-.1-.16-.21c.53-.54,1.44-.49,2.17-.7.26-.09-.31-.88.19-.67l.08.33c.29-.61,1-.52,1.29-1.08,0,.09.06.17,0,.2.22.15.38-.19.28-.37.09,0,.11.15.2.21s.1-.4.27-.22c0,0,0,.08,0,.11,0-.14.32-.14.12-.35.24,0,.28-.3.5-.23-.06-.32.37,0,.19-.44.2.41.48.15.49-.1,0,.15.17.08.21.27a.26.26,0,0,0,.07-.41c.5.34.26-.64.73-.11a5.69,5.69,0,0,1,.81-1c.21.4-.35.25-.11.66.24-.34.23-.79.6-.87.12,0,.05.2.06.28.23-.34.64-.31.81-.68a.22.22,0,0,1,0,.14s.16,0,.06-.19l0,.08c-.24-.21-.08-.67-.15-.81.19.56.36,0,.57.7a.42.42,0,0,0-.06-.28c.07,0,.13.07.15.23.15-.21,0-.36.15-.45,0,.08,0,.14.07.25,0-.22,0-.44.19-.46,0,.06.08.12,0,.14.25-.17.2-.7.58-.7.13.43.17.07.37.39l.1-.19-.15-.12c.14-.07.13-.38.3-.34l0,.2.22-.21-.21,0c0-.25-.25-.41,0-.42,0,.06.14-.07.32.08h0c0-.14,0-.29.16-.26a4,4,0,0,1,.24.43c-.08-.31.28-.26.2-.59a1,1,0,0,0,.13.28l-.06-.25c.1,0,.13.06.19.21.22-.07-.29-.38,0-.33,0,0,0,0,0,.11.28,0,.36-.39.63-.4.24.29-.14.18.09.42.26-.23.4-.74.73-.83h-.07c-.22-.49.34.1.37-.2,0,0,.09.28.08.23.24,0,.34-.35.56-.66l0,.14c.17,0,.34-.12.5-.14,0-.14,0-.16-.09-.3.77.45.54-.79,1.2-.42,0,0,0,.16,0,.14l.23-.28c-.14-.19-.11-.1-.26-.22s0-.28.07-.32c0,.21.19.32.31.4,0-.06-.06-.13-.1-.19.35.27-.21-.42.14-.3l0,.11c.05-.1,0-.28.14-.3.17.21,0,.16.08.35.11-.08,0-.57.23-.4,0,.09-.09.13-.1.23.27.2.24.13.36.12h.26l-.1,0c-.19-.69.24-.28.22-.79,0,.48.09.23.22.5.1,0,.22.08.24.17,0-.27.26.08.21-.31.06.08.11,0,.21.18.08-.14-.12-.13-.17-.25,0-.39.65.1.7-.45A3.07,3.07,0,0,0,43.51,1l.05-.28-.1.15a.63.63,0,0,1-.11.12c-.1-.15,0-.36,0-.36s-.25-.1-.37,0A.44.44,0,0,0,43,.38c-.11,0,0,.36-.2.22a3.14,3.14,0,0,1,.08-.4c-.11.1-.22.29-.34.39,0-.17.06-.27.09-.38-.13.09-.35.18-.38.45l.1.09s0-.23,0-.28c.11-.22.18.08.19.18l-.08.07c.13.56.35-.12.54-.1L42.91,1l.16-.35c0,.1.09.33,0,.4.15.2.11-.15.24.07a.08.08,0,0,1,0,.07l.11-.13c0,.09,0,.29,0,.24a.17.17,0,0,0,.12,0L43.24.53c-.15.08-.08.41-.27.22v0c-.21.28.12.28.09.71L42.56.86l.13.28a.14.14,0,0,1-.16-.1c0,.24.09.11.13.31-.28-.16-.32.33-.59-.07.07.23.22.08.16.3-.31-.43-.13.18-.37,0s.09-.2-.15-.34c.15.44-.3.05-.36.19.18.32-.15.26-.27.47,0-.12-.43,0-.66,0l0-.05c.15.33-.06.37-.14.51A.57.57,0,0,1,40.15,2L40,2.05a.31.31,0,0,1,0,.27l-.11-.26c-.15.11-.15.46-.44.42.12.22.51.53.39.79-.08-.11-.2-.31-.18-.39s0,.13-.07.1l0-.25c-.14,0,0,.2,0,.22-.09-.17-.12-.09-.19-.23s.11,0,.1-.05a.5.5,0,0,1-.37-.14c.07.09.14.23.09.28s-.17-.17-.31-.21c0,.14-.14.07,0,.33,0,0-.12-.09-.18-.15,0,.16-.35.24-.11.47h0v0h0c-.12.41-.63.17-.83.42l0-.08c-.1.18-.32.25-.32.5,0,0-.2-.1-.24-.21-.08.13,0,.23-.29.19,0-.22-.12-.11.06-.18-.2,0-.31-.11-.34.22-.07-.25-.28-.21-.31-.1l.2.09a.47.47,0,0,1-.24.13l-.12-.32c-.51-.17-.23.93-.8.47,0,.25.25,0,.31.33-.17,0-.56-.29-.6-.27-.29,0,0,.53-.22.54.08.09.26.35.16.53s-.42-.33-.37-.47.06,0,.08,0a.15.15,0,0,0-.06-.22l0,.12c-.13-.07-.32,0-.37-.14-.06.16.05.19.16.2-.27,0-.3.16-.55.17.07,0,.16.14.13.16-.35,0,0,.27-.18.42-.19-.1-.17-.4-.29-.16-.17,0-.18-.26-.18-.37-.06.3-.4.05-.52.07l0-.14a.22.22,0,0,1-.12.13l.17.18c-.08,0-.12,0-.17-.07,0,.17.23.32.23.57-.13-.06-.16.24-.34,0,.28,0-.18-.26,0-.42,0,.06-.06.08-.14.07a.12.12,0,0,1,0-.08c-.35-.13.08.37-.15.49-.06-.18-.22-.27-.24-.22s.19.24.17.4c-.21,0-.1.18-.19.21h.12c.06.17,0,.19-.1.29-.08-.11.05-.13,0-.16,0,.33-.41-.14-.46.13-.14-.07-.17-.29-.28-.33-.06.3-.3-.1-.4.16.17.18.15.13.14.4l.22-.31,0,.41c.1,0,.12-.24.2-.24,0,.23,0,.17.12.32-.3-.25-.15.32-.41.19l-.28-.52c-.35-.11-.24.48-.59.5l.14,0c.07.23-.16.13-.21.26A.77.77,0,0,0,30,7.3c.07.12-.22.1,0,.46l-.25-.16c-.28,0,0,.64-.24.7,0-.22-.21-.29-.14-.51-.07,0-.15,0-.09.17-.1-.09-.07.34-.23.22,0,.09.1.27,0,.31A.28.28,0,0,1,29,8.4c.05.09-.06.19.12.34-.53-.42-.61.39-1.06,0a2.27,2.27,0,0,1-.43.4c0-.06,0-.09,0-.08-.29-.05.15.56-.18.51-.27-.22,0-.22-.09-.29-.34-.55-.23.23-.57,0l0,0c-.22-.13-.17.37-.38.44a.28.28,0,0,0-.05-.09,1.08,1.08,0,0,1-.3.78c-.07-.26,0-.17-.14-.37-.07.07.22.35.09.5a1.16,1.16,0,0,1-.45-.37l.15-.1c-.25-.26-.19.13-.3.12L25.3,10c-.21.18,0,.53-.3.64l.09.09c0,.42-.23-.13-.23.2l-.23-.32a2.76,2.76,0,0,1-.27.67,2,2,0,0,1,.11-.77c-.09.05-.3.2-.25.39,0-.05,0-.16.08-.13,0,.34,0,.55-.22.65-.33-.69-.57.09-1-.36-.18.42-.69.24-1.05.48.42.45-.1.08.21.6-.07.08-.11.09-.13.06L21.68,12c-.15-.13,0-.17-.06-.28-.21.06-.2-.19-.4-.26.13.18.08.31-.07.29l.29.17c-.12.43-.48-.33-.6.1v-.21c-.09.17-.52.27-.42.78-.06,0-.17-.18-.13-.25-.37.11-.49.86-.89.73l0-.15c0,.08,0,.31-.12.22s-.05-.15-.08-.14,0,.32-.17.29v-.19c-.41,0-.3.63-.52.87a.66.66,0,0,0-.69-.37l0-.06c-.4.15-.47.66-.74,1-.44-.3-.83.22-1.3.17a.42.42,0,0,1,.11.38c-.13,0-.09.39-.26,0h0c-.25-.32-.37-.13-.5-.07l.22.47c-.7-.49-.77.73-1.28.22,0,.17-.13.22-.15.38l-.12-.25a1.12,1.12,0,0,0-.65.29l0-.2c-.17.06.18.82,0,.92l-.24-.35c-.28.15-.74,0-.84.46,0-.06-.07-.17,0-.21-.14.06-.65,0-.33.5-.18-.33-.31.12-.38.35l-.11-.26c0,.38.08.47-.05.65-.06,0-.14-.17,0-.14-.21,0,0,.29-.23.25l0-.19c-.15.06-.1.13-.08.36s-.31.08-.45-.13c.05.15.07.37,0,.35a.24.24,0,0,1-.05-.18c-.33,0-.21.48-.51.32a.3.3,0,0,0-.1-.13,1.54,1.54,0,0,1,.35-.14c-.12-.22-.29-.18-.33-.56,0,.24-.06.72-.27.69,0,0,0,0-.06-.06v0s-.06,0-.07.09-.12,0-.16,0c-.12-.18-.24,0-.32,0,.14.24,0,.26.22.41,0,0,0,0,0-.07l0,0v0l.18-.12c0,.16,0,.3-.16.21l.1.46c-.29-.29-.59-.38-.73-.57-.16.26-.51.38-.42.93,0,.09-.14-.1-.21-.16s.07-.08,0-.16c-.07.19-.37.26-.24.6-.24-.06-.06-.35-.26-.18l0-.11c-.74-.29-.32,1.22-1.18.82.06,0,.09,0,.12.08-.74,0-1.06.9-1.88.73-.21,0-.12.21-.14.42L4,21.57V22c-.13.36-.76-.44-.85.15l.14.16c-.13,0-.3.28-.39.07,0,0,.06.2,0,.13l-.07-.14-.15.38c-.26,0-.25-.57-.57-.44a.82.82,0,0,0,0,.65s.16,0,.24.16l-.07.13c.2.42.33.89.74,1.05l0-.35.16.17-.15.09c.19.15.15-.05.16-.19a.5.5,0,0,0,.18.18l0-.49c.1.16.08.37.25.4,0-.23-.27-.33-.19-.52.18.15.23.31.25.1a.33.33,0,0,1,.07.25c0-.18.2-.18.14-.42.21.18.27-.22.46.18a.73.73,0,0,1,.07-.45c.09.55.32-.13.54.39-.1-.47.31-.39.38-.72,0,0,0,.11,0,.1.13,0,.23.09.34.13-.16-.35,0-.52,0-.78.31.26.13.45.34.75-.16-.28.08-.41-.08-.62.21.16.14.06.34.32-.21-.45.06-.12,0-.44.26.14.25.39.34.17C6.72,22.61,6.65,22.84,6.65,22.84Zm3.52-2.79h0l-.07.05Zm.32-.17-.15.06c-.05-.08-.09-.17-.05-.19S10.4,19.83,10.49,19.88ZM8.9,18.51c0-.06.07,0,.11,0a.3.3,0,0,0-.08.08v0A.43.43,0,0,1,8.9,18.51Z"/><path class="cls-1" d="M9,18.89a0,0,0,0,1,0,0L9,19l0-.09Z"/><path class="cls-1" d="M38.56,3.25h0l0,0Z"/><polygon class="cls-1" points="15.26 17.97 15.23 17.91 15.23 17.98 15.26 17.97"/><path class="cls-1" d="M40.81,3.08l.06,0S40.84,3.1,40.81,3.08Z"/><path class="cls-1" d="M41.61,2.7l.15,0A.5.5,0,0,0,41.61,2.7Z"/><path class="cls-1" d="M42.26,2.48a.37.37,0,0,0,0-.11h0Z"/><path class="cls-1" d="M33.06,8.06s0,0,0,0S33,8.12,33.06,8.06Z"/><path class="cls-1" d="M35.53,5.92a.88.88,0,0,1,0,.17C35.57,6.08,35.61,6.06,35.53,5.92Z"/><polygon class="cls-1" points="30.1 10.09 30.09 10.09 30.07 10.1 30.1 10.09"/><path class="cls-1" d="M35.37,6.16a.1.1,0,0,0,.14-.07S35.39,6.1,35.37,6.16Z"/><path class="cls-1" d="M42.31.13h0v0Z"/><path class="cls-1" d="M42.27.16l0,0S42.27.19,42.27.16Z"/><path class="cls-1" d="M42.17.27,42.24.2S42.18.19,42.17.27Z"/><path class="cls-1" d="M43.21.2v0Z"/><path class="cls-1" d="M43.81,1.63h.07l1.74.51-2.2-2C43.36.05,43.28,0,43.21,0V.1c0-.12.14.08.21.1L46.48,1l-2.65.53S43.8,1.59,43.81,1.63Z"/><path class="cls-1" d="M42.19,1.1l.24,0c-.09-.07-.2-.17-.13-.25C41.89.67,42.48,1,42.19,1.1Z"/><path class="cls-1" d="M41.5,1.32c.09-.11-.08-.14-.1-.2C41.38,1.25,41.38,1.28,41.5,1.32Z"/><path class="cls-1" d="M37.07,3.84,37,3.61C36.89,3.69,37,3.69,37.07,3.84Z"/><polygon class="cls-1" points="36.87 5.47 37.02 5.56 36.95 5.33 36.87 5.47"/><polygon class="cls-1" points="35.47 4.16 35.49 4.11 35.4 4.27 35.47 4.16"/><path class="cls-1" d="M28,8.41l.18.26C28.24,8.59,28.08,8.27,28,8.41Z"/><path class="cls-1" d="M25,10.47c-.11-.12-.25-.16-.24,0C24.8,10.46,24.93,10.52,25,10.47Z"/><polygon class="cls-1" points="14.94 15.28 14.96 15.15 14.88 15.29 14.94 15.28"/><path class="cls-1" d="M12.58,25.41c0-.09,0-.28,0-.24l0,.33Z"/><path class="cls-1" d="M12.42,24.79a3.57,3.57,0,0,0-.06.75c0-.32,0-.19.08-.56,0,0,0,.1,0,.22,0-.08,0,.08,0-.13s-.07-.27-.11-.06A1.61,1.61,0,0,1,12.42,24.79Z"/><path class="cls-1" d="M10,24.23v0S10,24.24,10,24.23Z"/><path class="cls-1" d="M8.5,24s0,0,0-.07A.06.06,0,0,0,8.5,24Z"/><path class="cls-1" d="M8.25,23.65v0S8.25,23.62,8.25,23.65Z"/><path class="cls-1" d="M10,24.23l0-.1C10,24.23,10,24.21,10,24.23Z"/><path class="cls-1" d="M12.07,25.58a.13.13,0,0,0,0-.08s0,0,0,0Z"/><path class="cls-1" d="M10.67,24h0v-.13Z"/><path class="cls-1" d="M11.18,23.93s0,.27,0,.39a.78.78,0,0,1,0-.19Z"/><path class="cls-1" d="M12,24.44v0Z"/><path class="cls-1" d="M10.31,23.91v0Z"/><path class="cls-1" d="M2.12,18.51l0,0Z"/><polygon class="cls-1" points="3.63 18.55 3.64 18.56 3.79 18.63 3.63 18.55"/><path class="cls-1" d="M7.78,23.28h0S7.79,23.26,7.78,23.28Z"/><path class="cls-1" d="M3.46,23.4c0,.26-.09.33,0,.61A2.39,2.39,0,0,0,3.46,23.4Z"/><path class="cls-1" d="M12.06,25.55h0Z"/><path class="cls-1" d="M3.44,24h0v0Z"/><path class="cls-1" d="M6.69,23.43v.12A.62.62,0,0,0,6.69,23.43Z"/><path class="cls-1" d="M7.5,23.84l0,0S7.49,23.84,7.5,23.84Z"/><path class="cls-1" d="M6.27,23.82s0-.06,0,0v0S6.26,23.77,6.27,23.82Z"/><path class="cls-1" d="M5.83,23.81v0Z"/><path class="cls-1" d="M1.7,19.77l.23.09C1.75,19.78,1.71,19.69,1.7,19.77Z"/><path class="cls-1" d="M12.07,25.43a.31.31,0,0,1,0,.12s0,0,0,0A.17.17,0,0,0,12.07,25.43Z"/><path class="cls-1" d="M6.21,26l-.07,0A.08.08,0,0,0,6.21,26Z"/><path class="cls-1" d="M.3,23.23l0,0S.27,23.23.3,23.23Z"/><path class="cls-1" d="M5.93,26a1.46,1.46,0,0,0,0-.2v.08Z"/><path class="cls-1" d="M1.94,19.86h0Z"/><path class="cls-1" d="M1.52,19.17s.31.18.5.28-.26-.08-.44-.14c.06.09.36.26.33.29a.58.58,0,0,1-.15-.06c.25.17-.05.14.26.35l-.08,0,.46.2s.19.15,0,.06c0,0-.08-.06-.14-.1l.08.08C2,20,2.22,20,2,19.9c.07.1.31.29.2.29-.32-.13-.06-.15-.36-.22H2c-.52-.17,0,0-.5-.21-.12,0,.12.16,0,.21.16.1.26.11.42.21.25.26-.82-.26-.45,0,.19.12.58.31.35.28l-.34-.18c-.08.07.48.27.2.25-.13-.07-.08-.11-.13-.12-.3-.07.18.13.16.17l-.31-.13c0,.11.18.31.2.44a1,1,0,0,0-.29-.13c.1.19-.16.24-.39.28l.24.17A.43.43,0,0,1,1,21.14c-.13,0,.16.08.26.15s-.17,0-.24-.09c.19.18.38.45.05.41L1,21.56c-.14,0,.51.32.24.27l-.05,0c-.17.07,0,.44-.55.5.4.12-.3.21.3.32-.35.09-.45,0-.72.24,0,.06.36.09.41.14H.27l.32.08-.4.06.08.06a.44.44,0,0,1,.24-.06c.13.07-.25.24-.41.27a1.51,1.51,0,0,0,.26.18.61.61,0,0,1-.25,0c.32.06-.33.09,0,.14a1.09,1.09,0,0,1,.25,0c-.19.09-.17.23-.07.3L.05,24c0,.19.2.33.3.51a.75.75,0,0,1,.44-.24l-.28.18c.2-.07.09-.11.34-.17,0,.07-.3.22-.42.24l.15,0-.25.12c.19-.08-.19.31.14.16l-.08.06c.13.17.29.16.43.26.21-.19.21-.11.42-.24,0,.12,0,.36.11.41s.18-.18.32-.29c-.16.21,0,.25-.19.37A.7.7,0,0,0,2,25.35a.78.78,0,0,1,.08-.23c.06,0,0,.12,0,.23l0,0c.2-.14.24.06.32.25s.19.35.36.1l0,0A3.19,3.19,0,0,0,3,25.48c.08.05-.09.19,0,.35.28-.41.38.08.48-.2.08.75.31-.05.42.43v-.17c0-.18,0,.1.06.14,0-.14,0-.16,0-.26.26-.21.52.27.78.44.09.05.07-.92.18-.49l0,.33c.2-.4.39,0,.59-.32,0,.08,0,.18,0,.18,0,.24.15,0,.15-.18,0,0,0,.17,0,.27s.11-.3.13-.06a.41.41,0,0,1,0,.09c0-.11.12,0,.1-.24.06.13.13-.12.19,0,0-.31.11.16.13-.28,0,.45.12.36.17.15,0,.14,0,.15,0,.33,0,0,.09-.08.09-.32.08.55.2-.43.24.27A2,2,0,0,1,7,25.47c0,.45-.15,0-.15.52.13-.19.21-.57.34-.46s0,.19,0,.27c.14-.18.25.05.37-.2a.37.37,0,0,1,0,.12s0,.07,0-.13l0,.05a3.35,3.35,0,0,1,.1-.77c-.05.58.11.15,0,.89a.81.81,0,0,0,0-.28s0,.12,0,.28c.08-.11,0-.33.13-.32a2.42,2.42,0,0,1,0,.25c0-.19.08-.38.14-.3s0,.14,0,.14.2-.51.31-.33c0,.43,0,.15,0,.52l.06-.11,0-.18s.11-.26.15-.14l0,.15.1-.07,0-.14c.06-.19,0-.47.07-.37s.06,0,.08.23h0c0-.12.06-.24.1-.15s0,.41,0,.49c0-.31.13-.08.17-.41a1.68,1.68,0,0,0,0,.31l0-.25a.53.53,0,0,1,0,.27c.08,0,0-.47.07-.26a.18.18,0,0,1,0,.09c.09.11.18-.15.27,0,0,.38-.08.09-.06.41.13-.07.26-.45.38-.35l0-.05c0-.53.08.27.14,0,0,0,0,.29,0,.23s.17-.12.29-.29v.14c0,.12.12.07.17.13a.69.69,0,0,0,0-.31c.15.78.31-.41.44.24,0,0,0,.12,0,.12l.12-.12a1.33,1.33,0,0,0,0-.32c0-.14.05-.25.08-.25a1,1,0,0,0,0,.5V25c0,.42,0-.46.1-.18V25c0-.06.07-.22.1-.19,0,.27,0,.13,0,.35.05,0,.1-.51.14-.24,0,.07,0,.07-.07.15,0,.31.05.23.08.28h0l.08.14,0-.09c.07-.69.12-.12.21-.58a1.62,1.62,0,0,0,0,.56.78.78,0,0,1,0,.26c0-.24.06.2.12-.16,0,.1,0,0,0,.25.05-.07,0-.17,0-.29.08-.33.17.41.29-.05.1-.18.12-.51.21-.67a.88.88,0,0,1,0,.35c.05.15.09.12.13,0a1.28,1.28,0,0,0,0,.27s0-.36.08-.21,0,.28-.05.39c.05-.09.1-.27.14-.36a1.22,1.22,0,0,1-.05.37.68.68,0,0,0,.15-.42l0-.1a.85.85,0,0,1,0,.28c-.05.21-.06-.09-.07-.19l0-.06c0-.57-.13.09-.19.05l0-.41L12,25a1.29,1.29,0,0,1,0-.4c0-.21,0,.15-.07-.08a.11.11,0,0,1,0-.08l-.05.13c0-.09,0-.3,0-.24-.08-.24-.14.31-.16,0v0c-.11.14,0,.31-.1.66l0-.75,0,.3s0,0,0-.15c0,.21,0,.13,0,.33-.05-.28-.16.12-.16-.36,0,.23.05.18,0,.34,0-.53-.07.09-.12-.15s.07-.13,0-.37c0,.45-.09-.1-.14,0,0,.37-.09.15-.17.27,0-.12-.13-.2-.19-.33V24c0,.36-.09.29-.14.37a1.59,1.59,0,0,1,.05-.41h-.05a.41.41,0,0,1-.06.22l0-.27c-.06,0-.13.32-.21.14a3.1,3.1,0,0,1,0,.88,1.68,1.68,0,0,1,0-.43s0,.11-.05,0l0-.23c0-.1,0,.2-.05.17,0-.19,0-.14,0-.29s0,.08,0,0a.54.54,0,0,1-.08-.3,1,1,0,0,1,0,.29c-.07,0,0-.24-.06-.34,0,.13-.05,0-.06.29,0,0,0-.14,0-.22,0,.13-.15,0-.12.35v0h0c-.11.29-.22-.17-.32,0v-.1c-.07.12-.14.07-.19.28a.67.67,0,0,1,0-.3c-.05.07-.06.18-.12,0s0-.15.05-.12-.07-.25-.15,0c0-.25,0-.32-.07-.25l0,.19s-.06,0-.09,0l0-.33c-.12-.41-.24.68-.32,0,0,.23.06.17,0,.44-.06-.05-.11-.53-.13-.53-.08-.18-.09.49-.17.36a1.4,1.4,0,0,1-.05.54,1.15,1.15,0,0,1,0-.59s0,0,0,.07a.4.4,0,0,0,0-.22v.12c0-.13-.11-.12-.08-.31a.29.29,0,0,0,0,.26c-.07-.18-.11,0-.19-.13a.83.83,0,0,1,0,.21c-.11-.15-.06.22-.13.27,0-.18,0-.43-.06-.28a.92.92,0,0,1,0-.41c-.08.23-.13-.15-.17-.2l0-.09s0,0-.06,0v.24a.16.16,0,0,1,0-.14c0,.15,0,.39,0,.6,0-.12-.09.13-.1-.18.09.1,0-.32.08-.37s0,0-.06,0,0-.06,0-.08c-.08-.28,0,.36-.13.35,0-.18,0-.34,0-.3a1,1,0,0,1,0,.43c0-.14-.06.1-.09.08l0,.07c0,.18,0,.15-.09.21,0-.14,0-.1,0-.16,0,.31-.1-.32-.16-.11,0-.12,0-.34,0-.42-.08.23-.08-.24-.15-.05a.82.82,0,0,1,0,.41l.13-.17L7.14,24s.08-.15.1-.11a.73.73,0,0,0,0,.33c0-.36-.1.21-.16,0l0-.59c-.08-.27-.16.3-.27.15l0,.1c0,.23-.07,0-.11.12a1.47,1.47,0,0,0,0-.39c0,.15-.08,0-.1.38l0-.26c-.09-.11-.12.56-.2.49a2.51,2.51,0,0,1,0-.51s0,0-.06.1c0-.12-.08.27-.11.08,0,.09,0,.29,0,.27V24a1.23,1.23,0,0,0,0,.35c-.08-.62-.25,0-.32-.49a.92.92,0,0,1-.2.14c0-.06,0-.1,0-.08-.08-.19-.06.57-.15.36s0-.17,0-.29c0-.65-.12.08-.17-.3l0,0c0-.22-.12.25-.2.2v-.1a1,1,0,0,1-.23.53,1.67,1.67,0,0,0,0-.39s0,.41-.06.48a2.51,2.51,0,0,1-.07-.53l.07,0c0-.35-.09,0-.12,0v-.15c-.1,0-.11.44-.21.41v.11c-.06.39,0-.22-.1.07v-.39a2.31,2.31,0,0,1-.21.45,3.9,3.9,0,0,1,.18-.61s-.13,0-.15.22c0,0,0-.14.05-.07-.05.3-.11.46-.19.45,0-.77-.18-.2-.23-.79-.13.28-.25-.13-.4-.09,0,.6,0,0,0,.63,0,0-.05,0-.05,0l-.1-.37c0-.18,0-.13,0-.27s0-.26,0-.42c0,.22,0,.31,0,.23v.28c-.07.32,0-.51,0-.19l0-.19c0,.11,0,0-.17.47a2.83,2.83,0,0,1,.09-.27c0-.07-.31.49-.2.19l.08-.14s-.17.26-.09.12l.09-.15c0,.05-.18.24-.14.16l.12-.16c.11-.18-.33.36-.48.42l.51-.57,0-.06a3.19,3.19,0,0,1-.61.33c.5-.33.17-.21.48-.37l-.46.16c.1-.05-.37.07.11-.07h0C3.15,23,3,23,3,23l-.62.14c.46-.13.38-.12.29-.14S2.55,23,2.93,23l-.27,0H3c.09,0,.12,0,.06,0l.21,0a5.26,5.26,0,0,1-.82-.22l.42.1s.1,0,.15,0,0,0-.1-.15a1.09,1.09,0,0,1,.17.1s.35-.06-.19-.29c.34.16.08-.09,0-.21l.25.12c-.3-.19-.39-.23-.45-.34s.21.08.14.07c.15,0-.22-.15-.06-.15l.15.1s0-.08-.22-.19.11-.07.34,0c-.13-.07-.31-.18-.23-.18a.41.41,0,0,1,.16.09c.22,0-.23-.27,0-.22a.54.54,0,0,0,.16.06c0,.07-.08.12-.09.11a2.21,2.21,0,0,1,.6.26c-.16-.13-.5-.38-.37-.39l.08,0,0,0s0,0,0-.05h.09c.19.08.13,0,.15-.05a2.13,2.13,0,0,0-.42-.19s0,0,0,0,0,0,0,0h0a.25.25,0,0,1,0,.07c-.12-.08-.22-.15-.06-.12l-.4-.22c.38.12.61.13.83.22-.1-.15,0-.24-.46-.51-.05-.06.15,0,.23.05s0,0,.09.09c-.1-.1,0-.16-.31-.33.18,0,.29.18.28.07l.1.06c.61.07-.74-.66,0-.54a.19.19,0,0,1-.12,0c.4-.07-.09-.56.48-.55.13,0-.08-.12-.23-.23l.28.12-.29-.21c-.19-.19.74.15.36-.16l-.2-.06c.06,0,0-.18.16-.08,0,0-.19-.1-.08-.07l.14.07-.2-.21c.14,0,.57.27.64.17A1.49,1.49,0,0,0,4,18.69s-.11,0-.26-.06l-.06-.07a4.51,4.51,0,0,0-1.18-.47l.23.18-.21-.07v-.06c-.21-.06,0,0,.06.12a1.08,1.08,0,0,0-.24-.08l.38.25a1.73,1.73,0,0,0-.43-.18c.18.11.39.14.49.25-.21-.06-.36-.14-.21,0a.82.82,0,0,1-.22-.12c.12.09,0,.11.23.23-.25-.08,0,.13-.38,0,.09,0,.29.2.29.24-.46-.28-.08.09-.59-.16.42.24.13.24.34.42,0,0-.1-.06-.08-.06a.78.78,0,0,1-.28,0,3.19,3.19,0,0,1,.61.4A6.27,6.27,0,0,1,1.72,19c.29.13.25.21.5.31a2.34,2.34,0,0,1-.42-.13c.44.21.06.07.32.22-.25,0-.43-.17-.32-.05A.78.78,0,0,1,1.52,19.17Zm.13,1.75h0v0Zm0,.12s0,0,0,0,.18.08.17.09A.83.83,0,0,0,1.6,21Zm1.89.56s0,0-.08,0a.17.17,0,0,0,0-.05l0,0Z"/><path class="cls-1" d="M3.17,21.41h0l-.06,0,.08.05Z"/><path class="cls-1" d="M10,24.28h0v0Z"/><polygon class="cls-1" points="0.19 23.01 0.27 23.01 0.21 23 0.19 23.01"/><path class="cls-1" d="M10.71,25.25s0,.05,0,.08Z"/><path class="cls-1" d="M11,25.32l0,.1A.34.34,0,0,0,11,25.32Z"/><path class="cls-1" d="M11.26,25.47v-.12h0Z"/><path class="cls-1" d="M7.48,25.72v0C7.44,25.79,7.46,25.77,7.48,25.72Z"/><path class="cls-1" d="M8.61,25.09a.4.4,0,0,1,0,.13S8.61,25.25,8.61,25.09Z"/><polygon class="cls-1" points="6.21 26.04 6.21 26.03 6.21 26.03 6.21 26.04"/><path class="cls-1" d="M8.52,25.22c0,.05,0,0,.05,0S8.54,25.17,8.52,25.22Z"/><path class="cls-1" d="M12.28,25.61v0Z"/><path class="cls-1" d="M12.3,25.58v0S12.3,25.55,12.3,25.58Z"/><path class="cls-1" d="M12.34,25.48l0,.07S12.33,25.56,12.34,25.48Z"/><path class="cls-1" d="M12,25.48v0Z"/><path class="cls-1" d="M11.87,25.51s.06.21.09.15v-.08C12,25.73,11.9,25.33,11.87,25.51Z"/><path class="cls-1" d="M11.5,24.24l.08.08c0-.11,0-.25,0-.28C11.49,23.72,11.6,24.28,11.5,24.24Z"/><path class="cls-1" d="M11.25,24.08c.05,0,0-.16,0-.22A.28.28,0,0,0,11.25,24.08Z"/><path class="cls-1" d="M9.46,24v-.25S9.47,23.88,9.46,24Z"/><polygon class="cls-1" points="9.09 25.36 9.12 25.52 9.14 25.28 9.09 25.36"/><polygon class="cls-1" points="8.93 23.53 8.94 23.49 8.88 23.59 8.93 23.53"/><path class="cls-1" d="M5.91,23.56v.32C5.94,23.82,6,23.47,5.91,23.56Z"/><path class="cls-1" d="M4.61,23.86c0-.16-.05-.26-.07-.11S4.59,23.9,4.61,23.86Z"/><polygon class="cls-1" points="2.89 23.03 3.02 23.01 2.91 23.02 2.89 23.03"/></g></g></svg>